<?xml version="1.0" encoding="UTF-8" standalone="no"?>
<!-- Created with Inkscape (http://www.inkscape.org/) -->

<svg
   version="1.1"
   id="svg1"
   width="295"
   height="193"
   viewBox="0 0 295 193"
   sodipodi:docname="fire_1.svg"
   inkscape:version="1.4 (86a8ad7, 2024-10-11)"
   xmlns:inkscape="http://www.inkscape.org/namespaces/inkscape"
   xmlns:sodipodi="http://sodipodi.sourceforge.net/DTD/sodipodi-0.dtd"
   xmlns="http://www.w3.org/2000/svg"
   xmlns:svg="http://www.w3.org/2000/svg">
  <defs
     id="defs1" />
  <sodipodi:namedview
     id="namedview1"
     pagecolor="#ffffff"
     bordercolor="#000000"
     borderopacity="0.25"
     inkscape:showpageshadow="2"
     inkscape:pageopacity="0.0"
     inkscape:pagecheckerboard="0"
     inkscape:deskcolor="#d1d1d1"
     showgrid="false"
     inkscape:zoom="3.6135593"
     inkscape:cx="145.56285"
     inkscape:cy="101.42355"
     inkscape:window-width="1680"
     inkscape:window-height="979"
     inkscape:window-x="-8"
     inkscape:window-y="-8"
     inkscape:window-maximized="1"
     inkscape:current-layer="g1" />
  <g
     inkscape:groupmode="layer"
     inkscape:label="Image"
     id="g1">
    <g
       id="g2"
       transform="translate(2.2138867,-18.264534)">
      <path
         style="fill:#e7ab97"
         d="m 176.08333,164.63253 c 0.22917,-0.2021 3.34167,-0.6162 6.91667,-0.92022 4.09554,-0.34828 5.39025,-0.25611 3.5,0.24916 -3.05533,0.81669 -11.17492,1.33978 -10.41667,0.67106 z m -7.26537,-2.85049 c 0.53328,-0.53328 1.8049,-0.79255 2.82582,-0.57615 1.37482,0.29142 1.12336,0.54288 -0.9696,0.96961 -1.82482,0.37205 -2.48236,0.23268 -1.85622,-0.39346 z m 24.39261,-1.18118 c 0.70919,-0.76953 1.44699,-1.24947 1.63957,-1.06653 C 195.44328,160.09779 193.94,162 192.90156,162 c -0.53923,0 -0.40017,-0.62961 0.30901,-1.39914 z m -82.75169,-0.66739 c -1.02606,-1.66021 -0.10511,-1.89043 1.33055,-0.33261 0.70918,0.76953 0.84824,1.39914 0.30901,1.39914 -0.53922,0 -1.27702,-0.47994 -1.63956,-1.06653 z M 175,160 c 0.825,-0.53316 2.175,-0.94464 3,-0.9144 0.98906,0.0362 0.81874,0.34772 -0.5,0.9144 -2.74909,1.18132 -4.32797,1.18132 -2.5,0 z m -57.5,-0.97387 c 1.90986,-0.84565 8.2853,-1.41754 7.41667,-0.66529 -0.22917,0.19846 -2.44167,0.6286 -4.91667,0.95585 -3.00479,0.3973 -3.83546,0.30076 -2.5,-0.29056 z m 63.3125,-0.70924 c 0.72187,-0.28887 1.58437,-0.25335 1.91667,0.0789 0.33229,0.33229 -0.25834,0.56864 -1.3125,0.52522 -1.16495,-0.048 -1.4019,-0.28494 -0.60417,-0.60416 z M 46.176676,156.32192 c 0.302002,-1.56743 5.666762,-3.81182 6.682779,-2.7958 0.252994,0.253 -0.990011,0.74999 -2.762233,1.10444 -3.308827,0.66176 -3.135433,1.80532 0.402778,2.65637 1.268036,0.30501 0.783723,0.52352 -1.323324,0.59707 -2.60641,0.091 -3.253576,-0.246 -3,-1.56208 z M 112,157.50733 c 0,-0.67743 8.12258,-4.71808 8.57497,-4.2657 0.20963,0.20964 -1.63398,1.36018 -4.09691,2.55677 C 114.01513,156.99498 112,157.764 112,157.50733 Z m 74.33709,-0.73682 c 1.52258,-0.96872 7.41424,-0.98381 8.00421,-0.0205 0.25263,0.4125 -1.70662,0.75234 -4.3539,0.7552 -2.64728,0.003 -4.28992,-0.32776 -3.65031,-0.73469 z M 53.5,156.49365 c 2.212451,-0.77094 13.429888,-1.06688 12.258783,-0.32341 -0.692331,0.43952 -3.958783,0.7705 -7.258783,0.7355 -3.3,-0.035 -5.55,-0.22044 -5,-0.41209 z m 76.3125,-0.17676 c 0.72187,-0.28887 1.58437,-0.25335 1.91667,0.0789 0.33229,0.33229 -0.25834,0.56864 -1.3125,0.52522 -1.16495,-0.048 -1.4019,-0.28494 -0.60417,-0.60416 z M 68.975,154.34167 c 0.56375,-0.27959 1.025,-0.98001 1.025,-1.55651 0,-0.68347 -2.696593,-0.87533 -7.75,-0.55142 -5.271621,0.33789 -6.964772,0.20606 -5.294557,-0.41227 3.803114,-1.40793 13.544557,-0.62025 13.544557,1.0952 0,0.77916 -0.57375,1.53291 -1.275,1.675 -0.70125,0.14208 -0.81375,0.0296 -0.25,-0.25 z M 138,154 c 0.825,-0.53316 1.95,-0.96937 2.5,-0.96937 0.55,0 0.325,0.43621 -0.5,0.96937 -0.825,0.53316 -1.95,0.96937 -2.5,0.96937 -0.55,0 -0.325,-0.43621 0.5,-0.96937 z m -13.1875,-2.68311 c 0.72187,-0.28887 1.58437,-0.25335 1.91667,0.0789 0.33229,0.33229 -0.25834,0.56864 -1.3125,0.52522 -1.16495,-0.048 -1.4019,-0.28494 -0.60417,-0.60416 z M 131.5,149 c 2.74909,-1.18132 4.32797,-1.18132 2.5,0 -0.825,0.53316 -2.175,0.94464 -3,0.9144 -0.98906,-0.0362 -0.81874,-0.34772 0.5,-0.9144 z m -78.929973,-4.88669 c -0.764123,-1.23638 2.085059,-3.41392 3.646351,-2.7868 0.806898,0.32411 0.63369,0.54492 -0.466378,0.59454 -0.9625,0.0434 -1.75,0.591 -1.75,1.21683 0,0.81957 4.126156,1.01105 14.75,0.68449 8.1125,-0.24937 12.95,-0.11235 10.75,0.30449 -5.627428,1.06623 -26.269049,1.05584 -26.929973,-0.0135 z m 158.710143,0.15042 c 2.6291,-0.20668 6.6791,-0.20418 9,0.006 2.32091,0.20972 0.16983,0.37882 -4.78017,0.37577 -4.95,-0.003 -6.84892,-0.17464 -4.21983,-0.38131 z m -15.55247,-0.98546 c 1.77523,-0.22091 4.92523,-0.22454 7,-0.008 2.07476,0.21648 0.6223,0.39722 -3.2277,0.40166 -3.85,0.004 -5.54754,-0.17268 -3.7723,-0.39359 z m 31.0223,0.016 c 1.2375,-0.23836 3.2625,-0.23836 4.5,0 1.2375,0.23835 0.225,0.43337 -2.25,0.43337 -2.475,0 -3.4875,-0.19502 -2.25,-0.43337 z m -40.5,-0.9836 c 0.9625,-0.25152 2.5375,-0.25152 3.5,0 0.9625,0.25153 0.175,0.45733 -1.75,0.45733 -1.925,0 -2.7125,-0.2058 -1.75,-0.45733 z m 49.01903,-0.004 c 0.97297,-0.25354 2.32297,-0.23687 3,0.0371 0.67703,0.27393 -0.11903,0.48137 -1.76903,0.46099 -1.65,-0.0204 -2.20394,-0.2445 -1.23097,-0.49804 z M 87,141.60699 c 0,-0.21616 0.698372,-0.661 1.551938,-0.98855 0.889925,-0.34149 1.291322,-0.17385 0.940983,0.39301 C 88.905663,141.96166 87,142.4169 87,141.60699 Z m 84,-0.58758 c -1.41058,-0.4408 0.76827,-0.55497 5,-0.26201 4.125,0.28558 7.6875,0.68199 7.91667,0.88091 0.79986,0.69432 -10.43726,0.1559 -12.91667,-0.6189 z M 241.5,141 c 2.74909,-1.18132 4.32797,-1.18132 2.5,0 -0.825,0.53316 -2.175,0.94464 -3,0.9144 -0.98906,-0.0362 -0.81874,-0.34772 0.5,-0.9144 z m -180,-2 c 2.749085,-1.18132 4.327966,-1.18132 2.5,0 -0.825,0.53316 -2.175,0.94464 -3,0.9144 -0.989055,-0.0362 -0.81874,-0.34772 0.5,-0.9144 z m 96.57765,0.0998 C 153.8993,138.53309 150.95585,136 154.47568,136 c 0.9033,0 1.36424,0.45 1.02432,1 -0.36178,0.58537 0.75398,1.02914 2.69098,1.07029 1.81996,0.0386 4.20902,0.45702 5.30902,0.92971 2.24805,0.96602 1.11761,0.98683 -5.42235,0.0998 z M 247.5,139 c 2.74909,-1.18132 4.32797,-1.18132 2.5,0 -0.825,0.53316 -2.175,0.94464 -3,0.9144 -0.98906,-0.0362 -0.81874,-0.34772 0.5,-0.9144 z M 68.8125,137.31689 c 0.721875,-0.28887 1.584375,-0.25335 1.916667,0.0789 0.332291,0.33229 -0.258334,0.56864 -1.3125,0.52522 -1.164943,-0.048 -1.4019,-0.28494 -0.604167,-0.60416 z M 252,137.57037 c 0,-0.275 0.9,-0.98167 2,-1.57037 1.1,-0.5887 2,-0.84537 2,-0.57037 0,0.275 -0.9,0.98167 -2,1.57037 -1.1,0.5887 -2,0.84537 -2,0.57037 z M 72.8125,136.31689 c 0.721875,-0.28887 1.584375,-0.25335 1.916667,0.0789 0.332291,0.33229 -0.258334,0.56864 -1.3125,0.52522 -1.164943,-0.048 -1.4019,-0.28494 -0.604167,-0.60416 z M 85,135 l -6.5,-0.6548 6.190983,-0.1726 C 88.096024,134.07767 91.160081,134.45 91.5,135 c 0.339919,0.55 0.478976,0.92233 0.309017,0.8274 C 91.639058,135.73247 88.575,135.36014 85,135 Z m 74.25,0.31067 c 0.9625,-0.25152 2.5375,-0.25152 3.5,0 0.9625,0.25153 0.175,0.45733 -1.75,0.45733 -1.925,0 -2.7125,-0.2058 -1.75,-0.45733 z m 7,-1 c 0.9625,-0.25152 2.5375,-0.25152 3.5,0 0.9625,0.25153 0.175,0.45733 -1.75,0.45733 -1.925,0 -2.7125,-0.2058 -1.75,-0.45733 z m -12.46081,-3.05208 c 3.45905,-0.19583 8.85905,-0.19422 12,0.004 3.14094,0.19781 0.31081,0.35803 -6.28919,0.35606 -6.6,-0.002 -9.16987,-0.16382 -5.71081,-0.35965 z M 139.75,130.29427 c 1.2375,-0.23836 3.2625,-0.23836 4.5,0 1.2375,0.23835 0.225,0.43337 -2.25,0.43337 -2.475,0 -3.4875,-0.19502 -2.25,-0.43337 z M 121.5,129 c -4.77355,-0.65473 -4.81884,-0.68894 -1,-0.75529 2.2,-0.0382 6.25,0.28095 9,0.70928 4.71483,0.73437 4.77186,0.77744 1,0.75529 -2.2,-0.0129 -6.25,-0.33209 -9,-0.70928 z m 141.5,0.62244 c 0,-0.20765 0.7875,-0.99515 1.75,-1.75 1.58606,-1.24387 1.62143,-1.2085 0.37756,0.37756 C 263.82119,129.91575 263,130.44548 263,129.62244 Z m -152.1875,-2.30555 c 0.72187,-0.28887 1.58437,-0.25335 1.91667,0.0789 0.33229,0.3323 -0.25834,0.56864 -1.3125,0.52522 -1.16495,-0.048 -1.4019,-0.28494 -0.60417,-0.60416 z m -6.24774,-1.21211 c -0.90345,-1.46182 2.13267,-2.10128 10.26703,-2.16241 4.21751,-0.0317 9.46821,-0.40764 11.66821,-0.83544 l 4,-0.7778 -3.5,-1.07438 c -1.925,-0.5909 -2.74179,-1.11496 -1.8151,-1.16456 0.9267,-0.0496 2.9517,0.39145 4.5,0.98013 2.68237,1.01985 2.72117,1.12288 0.82294,2.18521 -1.09569,0.61319 -6.87587,1.31611 -12.84486,1.56204 -6.53308,0.26917 -10.31741,0.78639 -9.50784,1.29948 0.97933,0.62066 0.74935,0.85649 -0.84612,0.86764 -1.20504,0.008 -2.43996,-0.38754 -2.74426,-0.87991 z M 269.08029,121 C 270.5381,117.93897 271,117.37166 271,118.6422 c 0,0.53655 -0.69982,1.84905 -1.55517,2.91667 -1.46637,1.83031 -1.48719,1.7984 -0.36454,-0.55887 z M 106.75,119.26779 c 2.3375,-0.21053 6.1625,-0.21053 8.5,0 2.3375,0.21054 0.425,0.3828 -4.25,0.3828 -4.675,0 -6.5875,-0.17226 -4.25,-0.3828 z m -13.083333,-0.93446 c -1.325065,-1.32506 -0.62064,-2.33189 1.583333,-2.26304 2.138471,0.0668 2.150863,0.1109 0.25,0.88983 -1.621861,0.6646 -1.243722,0.90313 2,1.26161 l 4,0.44206 -3.583333,0.16811 c -1.970834,0.0924 -3.883334,-0.1319 -4.25,-0.49857 z M 101.75,115.33772 c 0.6875,-0.27741 1.8125,-0.27741 2.5,0 0.6875,0.27741 0.125,0.50439 -1.25,0.50439 -1.375,0 -1.9375,-0.22698 -1.25,-0.50439 z M 18,114.22107 c 0,-1.26366 4.658453,-3.24447 7.297053,-3.10276 1.726698,0.0927 1.554385,0.28335 -0.797053,0.88169 -2.440599,0.62103 -1.896737,0.78543 2.916667,0.88169 3.254166,0.0651 5.729166,0.28472 5.5,0.48812 C 31.92545,114.24956 18,115.04425 18,114.22107 Z m 45,-0.0739 c 0,-1.44486 6.996801,-3.45103 10.043948,-2.87986 2.031726,0.38083 1.851366,0.51654 -1.043948,0.78552 -1.925,0.17883 0.55,0.60508 5.5,0.94721 l 9,0.62206 -10.168213,0.18897 c -5.592516,0.10393 -10.880016,0.46211 -11.75,0.79596 C 63.711804,114.94083 63,114.7339 63,114.14713 Z m 45.26375,0.13529 c 1.52006,-0.22986 3.77006,-0.22371 5,0.0136 1.22994,0.23736 -0.0138,0.42542 -2.76375,0.41792 -2.75,-0.008 -3.75631,-0.20172 -2.23625,-0.43157 z M 116.5,113 c 0.33992,-0.55 0.81648,-1 1.05902,-1 0.24254,0 0.44098,0.45 0.44098,1 0,0.55 -0.47656,1 -1.05902,1 -0.58246,0 -0.7809,-0.45 -0.44098,-1 z m -81.6875,-0.68311 c 0.721875,-0.28887 1.584375,-0.25335 1.916667,0.0789 0.332291,0.3323 -0.258334,0.56864 -1.3125,0.52522 -1.164943,-0.048 -1.4019,-0.28494 -0.604167,-0.60416 z m 56.4375,-0.006 c 0.9625,-0.25152 2.5375,-0.25152 3.5,0 0.9625,0.25153 0.175,0.45733 -1.75,0.45733 -1.925,0 -2.7125,-0.2058 -1.75,-0.45733 z M 38.083333,111.63718 C 38.3125,111.43763 42.775,111.05209 48,110.78043 c 5.225,-0.27167 8.15,-0.16164 6.5,0.2445 -3.046702,0.74994 -17.180113,1.27703 -16.416667,0.61225 z M 97.8125,111.31689 c 0.721875,-0.28887 1.584375,-0.25335 1.916667,0.0789 0.332293,0.3323 -0.258334,0.56864 -1.3125,0.52522 -1.164943,-0.048 -1.4019,-0.28494 -0.604167,-0.60416 z m 10.4375,-0.0331 c 1.5125,-0.22913 3.9875,-0.22913 5.5,0 1.5125,0.22912 0.275,0.41659 -2.75,0.41659 -3.025,0 -4.2625,-0.18747 -2.75,-0.41659 z m -79.4375,-0.96686 c 0.721875,-0.28887 1.584375,-0.25335 1.916667,0.0789 0.332291,0.3323 -0.258334,0.56864 -1.3125,0.52522 -1.164943,-0.048 -1.4019,-0.28494 -0.604167,-0.60416 z m 48,0 c 0.721875,-0.28887 1.584375,-0.25335 1.916667,0.0789 0.332291,0.3323 -0.258334,0.56864 -1.3125,0.52522 -1.164943,-0.048 -1.4019,-0.28494 -0.604167,-0.60416 z m -43.543468,-1.00988 c 0.972967,-0.25354 2.322967,-0.23687 3,0.037 0.677032,0.27393 -0.119032,0.48137 -1.769032,0.46099 -1.65,-0.0204 -2.203936,-0.2445 -1.230968,-0.49804 z M 63,108.96764 c 4.512238,-0.82162 16.698621,-1.28517 15.916667,-0.60544 C 78.6875,108.5614 74,108.96349 68.5,109.25572 c -6.683828,0.35512 -8.507722,0.25959 -5.5,-0.28808 z m 17,0.0574 c 0,-0.53625 1.4625,-0.75265 3.25,-0.48089 2.377218,0.36143 2.72041,0.26314 1.277953,-0.36597 -1.83238,-0.79918 -1.793553,-0.89421 0.548221,-1.34187 1.386148,-0.26498 4.298569,-0.26626 6.472048,-0.003 L 95.5,107.31235 90,108.61381 c -6.667072,1.57761 -10,1.71466 -10,0.41119 z m -41.1875,-0.70811 c 0.721875,-0.28887 1.584375,-0.25335 1.916667,0.0789 0.332291,0.3323 -0.258334,0.56864 -1.3125,0.52522 -1.164943,-0.048 -1.4019,-0.28494 -0.604167,-0.60416 z m 4.270833,-0.67621 C 43.3125,107.44305 44.85,106.97938 46.5,106.6103 c 2.190916,-0.49007 2.595458,-0.3973 1.5,0.34401 -1.35037,0.91381 -5.920153,1.55175 -4.916667,0.68637 z m 7.729167,-2.32379 c 0.721875,-0.28887 1.584375,-0.25335 1.916667,0.0789 0.332291,0.3323 -0.258334,0.56864 -1.3125,0.52522 -1.164943,-0.048 -1.4019,-0.28494 -0.604167,-0.60416 z M 40,104.10841 C 40,103.49878 40.929584,103 42.065741,103 c 1.136158,0 2.99495,-0.4973 4.130649,-1.1051 1.1357,-0.60781 5.720816,-1.05371 10.189148,-0.99089 4.468332,0.0628 10.731495,-0.56487 13.918141,-1.39489 C 77.038363,97.754957 78,97.678882 78,98.900259 c 0,1.376631 -9.040214,3.241641 -17.719286,3.655531 -8.926372,0.42568 -13.621956,0.94906 -17.530714,1.954 -1.771226,0.45538 -2.75,0.31252 -2.75,-0.40138 z m 15.75,0.22931 c 0.6875,-0.27741 1.8125,-0.27741 2.5,0 0.6875,0.27741 0.125,0.50439 -1.25,0.50439 -1.375,0 -1.9375,-0.22698 -1.25,-0.50439 z M 274.29966,100 c 0,-3.025 0.18747,-4.2625 0.41659,-2.75 0.22913,1.5125 0.22913,3.9875 0,5.5 -0.22912,1.5125 -0.41659,0.275 -0.41659,-2.75 z M 60.8125,103.31689 c 0.721875,-0.28887 1.584375,-0.25335 1.916667,0.0789 0.332291,0.3323 -0.258334,0.56864 -1.3125,0.52522 -1.164943,-0.048 -1.4019,-0.28494 -0.604167,-0.60416 z M 54.083333,99.63266 C 54.3125,99.430623 56.3,98.963928 58.5,98.59556 c 2.866056,-0.479893 3.574771,-0.380098 2.5,0.352027 -1.349108,0.919001 -7.920254,1.569853 -6.916667,0.685073 z M 66,97.04569 c 0.825,-0.558286 2.3625,-1.021955 3.416667,-1.030377 2.558447,-0.02044 1.760261,0.551916 -1.916667,1.374387 -2.190916,0.490074 -2.595458,0.397296 -1.5,-0.34401 z m 6.8125,-1.728804 c 0.721875,-0.288871 1.584375,-0.253344 1.916667,0.07895 0.332291,0.332292 -0.258334,0.568641 -1.3125,0.52522 -1.164943,-0.04798 -1.4019,-0.284941 -0.604167,-0.604167 z M 76.083333,94.64364 C 76.3125,94.447643 78.075,93.998271 80,93.645038 c 2.462425,-0.45185 3.055325,-0.350747 2,0.341047 -1.355636,0.888655 -6.908426,1.505771 -5.916667,0.657555 z M 86.5,92.007244 c 1.910517,-0.827897 9.284023,-1.395691 8.416667,-0.648122 C 94.6875,91.55664 92.25,91.978271 89.5,92.296081 c -3.216747,0.371751 -4.286699,0.268737 -3,-0.288837 z m 11,-1.853605 c 3.09232,-1.323853 8.27556,-2.346262 6.5,-1.282144 -0.825,0.494434 -3.075,1.177834 -5,1.518667 -2.361021,0.418033 -2.849155,0.341063 -1.5,-0.236523 z M 85,87.106989 c 0,-1.578845 2.815172,-2.031027 3.385856,-0.543847 C 88.750128,87.512419 88.269204,88 86.968615,88 85.885877,88 85,87.598145 85,87.106989 Z M 110.5,87 c 1.1,-0.472686 2.9,-0.846202 4,-0.830035 1.60779,0.02363 1.50973,0.186406 -0.5,0.830035 -3.41917,1.09501 -6.04822,1.09501 -3.5,0 z M 93,86 c 3.41917,-1.09501 6.048225,-1.09501 3.5,0 -1.1,0.472686 -2.9,0.846202 -4,0.830035 C 90.892215,86.806404 90.990269,86.643629 93,86 Z m 24.33646,-0.669789 c 0.32134,-0.321344 2.43829,-0.923295 4.70433,-1.33767 2.26604,-0.414375 3.74638,-0.415821 3.28964,-0.0032 -0.97484,0.880658 -8.85565,2.202557 -7.99397,1.340882 z M 90,84 c 0.825,-0.533156 1.95,-0.969374 2.5,-0.969374 0.55,0 0.325,0.436218 -0.5,0.969374 -0.825,0.533156 -1.95,0.969374 -2.5,0.969374 -0.55,0 -0.325,-0.436218 0.5,-0.969374 z m 19,-1.056019 c 4.675,-1.018879 10.525,-1.813947 13,-1.766819 3.82849,0.0729 3.52238,0.200101 -2.05134,0.852405 -3.60323,0.421695 -8.32823,1.260044 -10.5,1.862998 -2.17176,0.602955 -5.07366,1.053001 -6.44866,1.000102 -1.375,-0.0529 1.325,-0.929807 6,-1.948686 z m 161.62354,-0.48264 c -0.96498,-2.514694 -0.68031,-3.163555 0.49853,-1.136338 0.58369,1.003751 0.8506,2.035659 0.59313,2.293128 -0.25747,0.257469 -0.74872,-0.263087 -1.09166,-1.15679 z M 96,82.120393 c 0.825,-0.464933 3.075,-1.124511 5,-1.465727 2.10684,-0.373449 2.90293,-0.283912 2,0.224941 -0.825,0.464933 -3.075,1.124511 -5,1.465727 -2.106841,0.373449 -2.902932,0.283912 -2,-0.224941 z M 106,79 c 0.825,-0.533156 2.175,-0.944637 3,-0.914402 0.98906,0.03625 0.81874,0.34772 -0.5,0.914402 -2.74909,1.181322 -4.32797,1.181322 -2.5,0 z m 8.5,-2 c 1.1,-0.472686 2.675,-0.859429 3.5,-0.859429 0.94548,0 0.76064,0.317714 -0.5,0.859429 -1.1,0.472686 -2.675,0.859429 -3.5,0.859429 -0.94548,0 -0.76064,-0.317714 0.5,-0.859429 z m 9.58333,-2.360841 C 124.3125,74.440696 126.525,74.010564 129,73.683311 c 3.00479,-0.397304 3.83546,-0.300761 2.5,0.290556 -1.90986,0.845651 -8.2853,1.417542 -7.41667,0.665292 z M 264.87244,72.25 C 263.62857,70.663944 263.66394,70.628574 265.25,71.872445 266.91575,73.178814 267.44548,74 266.62244,74 c -0.20765,0 -0.99515,-0.7875 -1.75,-1.75 z M 136.05197,71.946717 c 1.33642,-0.845481 8.80272,-1.400186 7.8647,-0.584304 -0.22917,0.199328 -2.41828,0.61846 -4.8647,0.931405 -2.87759,0.368101 -3.93678,0.245552 -3,-0.347101 z M 145.75,70.337719 c 0.6875,-0.277412 1.8125,-0.277412 2.5,0 0.6875,0.277413 0.125,0.504386 -1.25,0.504386 -1.375,0 -1.9375,-0.226973 -1.25,-0.504386 z M 152,69 c 1.375,-0.440352 3.4,-0.80064 4.5,-0.80064 1.58367,0 1.47958,0.166667 -0.5,0.80064 -1.375,0.440352 -3.4,0.80064 -4.5,0.80064 -1.58367,0 -1.47958,-0.166667 0.5,-0.80064 z m 106.5,-3.696165 c -2.75,-2.539214 -4.1,-4.133282 -3,-3.542372 1.90376,1.02268 9.3822,8.282132 8.44617,8.198832 C 263.70078,69.938457 261.25,67.84305 258.5,65.303835 Z M 51.02896,68.03906 C 49.292908,66.941147 49.638909,66.499086 53,65.5208 c 2.4314,-0.707688 2.44512,-0.684119 0.5,0.858916 -1.843588,1.462492 -0.63784,1.568338 15.41762,1.353428 C 86.655559,67.495712 90.635196,66.542516 83.782049,64.172839 80.5938,63.070408 80.585739,63.053743 83.5,63.58975 c 3.998604,0.735444 5.118214,1.960421 3.535174,3.867868 -1.060553,1.277888 -4.131423,1.539756 -17.907619,1.527069 C 59.9824,68.976265 51.838032,68.550733 51.02896,68.03906 Z M 163.5,67.043471 c 1.68537,-0.687596 1.4494,-0.887334 -1.5,-1.269677 -3.30353,-0.428251 -3.25456,-0.462703 0.87244,-0.613757 3.78216,-0.138432 4.20439,0.04246 3.12756,1.339963 -0.68469,0.825 -1.97729,1.468372 -2.87244,1.429715 -1.24012,-0.05355 -1.15146,-0.264524 0.37244,-0.886244 z M 59.5,64 c 1.65,-0.419854 4.125,-0.76337 5.5,-0.76337 2.230007,0 2.176008,0.08244 -0.5,0.76337 -1.65,0.419854 -4.125,0.76337 -5.5,0.76337 -2.230007,0 -2.176008,-0.08244 0.5,-0.76337 z m 94.5,0 c 0,-0.55 0.45,-1 1,-1 0.55,0 1,0.45 1,1 0,0.55 -0.45,1 -1,1 -0.55,0 -1,-0.45 -1,-1 z m 6.8125,-2.683114 c 0.72187,-0.288871 1.58437,-0.253344 1.91667,0.07895 0.33229,0.332292 -0.25834,0.568641 -1.3125,0.52522 -1.16495,-0.04798 -1.4019,-0.284941 -0.60417,-0.604167 z M 108.02896,60.03906 c -0.80907,-0.511673 -1.1221,-1.27925 -0.69563,-1.705727 0.42648,-0.426477 1.09715,-0.25484 1.49037,0.381415 0.39323,0.636256 2.95626,1.329612 5.69563,1.540792 l 4.98067,0.383964 -5,0.164935 c -2.75,0.09071 -5.66197,-0.253706 -6.47104,-0.765379 z m 56.78354,0.277826 c 0.72187,-0.288871 1.58437,-0.253344 1.91667,0.07895 0.33229,0.332292 -0.25834,0.568641 -1.3125,0.52522 -1.16495,-0.04798 -1.4019,-0.284941 -0.60417,-0.604167 z m 85.74637,-0.848689 C 249.49125,58.660688 249.09865,58 249.68643,58 c 0.58777,0 1.62888,0.675 2.31357,1.5 1.5572,1.876316 1.06734,1.865506 -1.44113,-0.0318 z M 121,59.166667 c 0,-0.717852 -2.01967,-1.236008 -5.25,-1.346915 l -5.25,-0.180248 4.88951,-0.380241 c 4.59803,-0.357573 7.81873,0.865828 6.29382,2.390737 C 121.3075,60.025833 121,59.808333 121,59.166667 Z M 170.5,59 c 1.65,-0.419854 3.9,-0.771756 5,-0.782005 1.5672,-0.0146 1.45899,0.154625 -0.5,0.782005 -1.375,0.440352 -3.625,0.792254 -5,0.782005 -2.2456,-0.01674 -2.19472,-0.09632 0.5,-0.782005 z m 13.75,-1.689326 c 0.9625,-0.251527 2.5375,-0.251527 3.5,0 0.9625,0.251528 0.175,0.457323 -1.75,0.457323 -1.925,0 -2.7125,-0.205795 -1.75,-0.457323 z M 245,56.5 c -1.375,-0.786021 -2.02351,-1.445075 -1.44113,-1.464565 0.58238,-0.01949 1.93238,0.625253 3,1.432762 2.46898,1.86744 1.68038,1.883528 -1.55887,0.0318 z m -48.79375,-0.240553 c 3.68844,-0.191858 9.98844,-0.193134 14,-0.0028 4.01156,0.190298 0.99375,0.347272 -6.70625,0.348833 -7.7,0.0016 -10.98219,-0.154138 -7.29375,-0.345996 z M 219.5,56 c 0.33992,-0.55 0.81648,-1 1.05902,-1 0.24254,0 0.44098,0.45 0.44098,1 0,0.55 -0.47656,1 -1.05902,1 -0.58246,0 -0.7809,-0.45 -0.44098,-1 z m -5.98779,-1.87602 C 210.73764,53.530217 208.4975,50 210.89529,50 c 0.57307,0 0.78292,0.675 0.46634,1.5 -0.41884,1.091469 0.11834,1.5 1.97236,1.5 1.40139,0 2.82609,0.45 3.16601,1 0.33992,0.55 0.47898,0.946758 0.30902,0.881685 -0.16996,-0.06507 -1.65353,-0.40604 -3.29681,-0.757705 z M 228.25,51.310674 c 0.9625,-0.251527 2.5375,-0.251527 3.5,0 0.9625,0.251528 0.175,0.457323 -1.75,0.457323 -1.925,0 -2.7125,-0.205795 -1.75,-0.457323 z M 123.7277,50.278268 c 1.77523,-0.220912 4.92523,-0.224542 7,-0.0081 2.07476,0.216475 0.6223,0.397221 -3.2277,0.401658 -3.85,0.0044 -5.54754,-0.17268 -3.7723,-0.393592 z m 96.0223,0.016 c 1.2375,-0.238353 3.2625,-0.238353 4.5,0 1.2375,0.238353 0.225,0.433369 -2.25,0.433369 -2.475,0 -3.4875,-0.195016 -2.25,-0.433369 z M 110,49.160515 c 0,-1.099115 4.61918,-3.185667 6.79705,-3.070327 0.93662,0.0496 0.22441,0.516626 -1.58269,1.037827 -1.8071,0.521201 -3.01804,1.380617 -2.69098,1.909812 C 112.85044,49.567022 112.41648,50 111.55902,50 110.70156,50 110,49.622232 110,49.160515 Z m 27.77621,-0.336721 c 0.89929,-0.899293 0.90041,-1.546724 0.005,-2.75 -0.94642,-1.271495 -0.82308,-1.256081 0.64212,0.08024 C 140.24816,47.818578 139.86127,50 137.74098,50 c -0.83468,0 -0.82522,-0.315759 0.0352,-1.176206 z M 119.8125,45.316886 c 0.72187,-0.288871 1.58437,-0.253344 1.91667,0.07895 0.33229,0.332292 -0.25834,0.568641 -1.3125,0.52522 -1.16495,-0.04798 -1.4019,-0.284941 -0.60417,-0.604167 z m 6.9375,-1.040282 c 1.7875,-0.221826 4.7125,-0.221826 6.5,0 1.7875,0.221827 0.325,0.403322 -3.25,0.403322 -3.575,0 -5.0375,-0.181495 -3.25,-0.403322 z m 55.33333,-2.642221 C 182.3125,41.433294 186.325,41.04611 191,40.773975 c 4.675,-0.272136 7.375,-0.152464 6,0.265936 -2.49733,0.759916 -15.70507,1.286282 -14.91667,0.594472 z m -8.81958,-1.351964 c 1.52006,-0.229855 3.77006,-0.223712 5,0.01365 1.22994,0.237362 -0.0137,0.425424 -2.76375,0.417917 -2.75,-0.0075 -3.75631,-0.201713 -2.23625,-0.431567 z m 27.40243,-1.709969 c -0.46968,-1.223959 -3.12604,-1.573343 -13.87354,-1.824757 L 173.5,36.436742 186.62756,36.218371 c 10.73051,-0.178497 13.35852,0.05994 14.3925,1.305795 0.69572,0.838291 1.03141,1.757699 0.74598,2.043128 -0.28543,0.285429 -0.78037,-0.162251 -1.09986,-0.994844 z M 170.8125,37.316886 c 0.72187,-0.288871 1.58437,-0.253344 1.91667,0.07895 0.33229,0.332292 -0.25834,0.568641 -1.3125,0.52522 -1.16495,-0.04798 -1.4019,-0.284941 -0.60417,-0.604167 z"
         id="path8" />
      <path
         style="fill:#fae92d"
         d="m 219,122.7534 c 0.275,-0.28778 3.99363,-1.91386 8.26362,-3.61351 15.18665,-6.045 15.20678,-6.01062 -3.26362,-5.57416 -18.13743,0.42859 -18.12045,0.57317 -0.5,-4.2581 3.3,-0.90481 6.60634,-1.9491 7.34742,-2.32064 0.74108,-0.37154 -6.32278,-0.93502 -15.69748,-1.25218 -20.66913,-0.69925 -24.44595,-1.9458 -11.02653,-3.63931 5.15713,-0.65082 12.52659,-1.98782 16.37659,-2.971098 l 7,-1.787782 -4.5,-0.646289 c -2.475,-0.355459 -6.975,-0.900663 -10,-1.211565 -3.025,-0.310903 -7.525,-0.838758 -10,-1.173011 -3.94101,-0.532242 -4.18945,-0.700817 -2,-1.357065 1.375,-0.412131 6.0775,-0.794186 10.45,-0.84901 4.64716,-0.05827 7.55532,-0.466093 7,-0.981644 -0.5225,-0.485081 -7.25,-2.072454 -14.95,-3.527496 -7.7,-1.455042 -15.125,-2.906633 -16.5,-3.225757 l -2.5,-0.580227 2.5,-1.068171 c 1.42435,-0.608581 9.92124,-1.100056 19.74832,-1.142278 9.48658,-0.04076 17.24908,-0.125006 17.25,-0.187217 9.3e-4,-0.06221 -2.47332,-0.891593 -5.49832,-1.843072 -3.025,-0.951479 -5.5,-2.072023 -5.5,-2.490098 0,-1.58579 22.46612,1.939197 28.35018,4.44821 1.0176,0.433913 0.1176,-0.916224 -2,-3.000306 L 235.5,74.712386 l 3,0.721758 c 7.10504,1.709372 17.37163,10.405617 21.19713,17.954878 6.00994,11.860038 -1.93697,21.970728 -21.33121,27.139268 -5.84386,1.55738 -20.31694,3.22031 -19.36592,2.22511 z"
         id="path7" />
      <path
         style="fill:#e38c6d"
         d="m 169.26375,164.28242 c 1.52006,-0.22986 3.77006,-0.22371 5,0.0136 1.22994,0.23736 -0.0137,0.42542 -2.76375,0.41792 -2.75,-0.008 -3.75631,-0.20172 -2.23625,-0.43157 z M 189,162 c 0.825,-0.53316 1.95,-0.96937 2.5,-0.96937 0.55,0 0.325,0.43621 -0.5,0.96937 -0.825,0.53316 -1.95,0.96937 -2.5,0.96937 -0.55,0 -0.325,-0.43621 0.5,-0.96937 z m -78,-2.86133 c 0,-0.47373 1.125,-0.64627 2.5,-0.38342 1.375,0.26285 2.5,0.65044 2.5,0.86133 0,0.21088 -1.125,0.38342 -2.5,0.38342 -1.375,0 -2.5,-0.3876 -2.5,-0.86133 z m 76.8125,-1.82178 c 0.72187,-0.28887 1.58437,-0.25335 1.91667,0.0789 0.33229,0.33229 -0.25834,0.56864 -1.3125,0.52522 -1.16495,-0.048 -1.4019,-0.28494 -0.60417,-0.60416 z M 47.475228,155.95992 c -0.421617,-0.68219 0.332299,-0.80584 2.190983,-0.35933 3.831413,0.92042 4.19405,1.39941 1.059473,1.39941 -1.434208,0 -2.896913,-0.46804 -3.250456,-1.04008 z m 87.337272,-1.64303 c 0.72187,-0.28887 1.58437,-0.25335 1.91667,0.0789 0.33229,0.33229 -0.25834,0.56864 -1.3125,0.52522 -1.16495,-0.048 -1.4019,-0.28494 -0.60417,-0.60416 z m -81,-1 c 0.721875,-0.28887 1.584375,-0.25335 1.916667,0.0789 0.332291,0.33229 -0.258334,0.56864 -1.3125,0.52522 -1.164943,-0.048 -1.4019,-0.28494 -0.604167,-0.60416 z m 5,-1 c 0.721875,-0.28887 1.584375,-0.25335 1.916667,0.0789 0.332291,0.33229 -0.258334,0.56864 -1.3125,0.52522 -1.164943,-0.048 -1.4019,-0.28494 -0.604167,-0.60416 z m 83.19107,-0.51332 c 1.56781,-1.89373 1.18124,-2.79404 -1.25357,-2.91957 -1.85196,-0.0955 -1.92163,-0.20052 -0.39378,-0.59378 2.86153,-0.73654 4.4249,1.40184 2.35449,3.22049 -0.93696,0.82304 -1.25517,0.95483 -0.70714,0.29286 z M 127,151.60699 c 0,-0.21616 0.69837,-0.661 1.55194,-0.98855 0.88992,-0.34149 1.29132,-0.17385 0.94098,0.39301 C 128.90566,151.96166 127,152.4169 127,151.60699 Z m 8.8125,-3.2901 c 0.72187,-0.28887 1.58437,-0.25335 1.91667,0.0789 0.33229,0.33229 -0.25834,0.56864 -1.3125,0.52522 -1.16495,-0.048 -1.4019,-0.28494 -0.60417,-0.60416 z M 58.75,143.33772 c 0.6875,-0.27741 1.8125,-0.27741 2.5,0 0.6875,0.27741 0.125,0.50439 -1.25,0.50439 -1.375,0 -1.9375,-0.22698 -1.25,-0.50439 z m 7.0625,-0.0208 c 0.721875,-0.28887 1.584375,-0.25335 1.916667,0.0789 0.332291,0.33229 -0.258334,0.56864 -1.3125,0.52522 -1.164943,-0.048 -1.4019,-0.28494 -0.604167,-0.60416 z m 6.4375,-0.006 c 0.9625,-0.25152 2.5375,-0.25152 3.5,0 0.9625,0.25153 0.175,0.45733 -1.75,0.45733 -1.925,0 -2.7125,-0.2058 -1.75,-0.45733 z m 138.53352,-0.0491 c 2.90594,-0.20265 7.40594,-0.20052 10,0.005 2.59406,0.20525 0.21648,0.37104 -5.28352,0.36844 -5.5,-0.003 -7.62242,-0.17053 -4.71648,-0.37317 z m -18.97102,-0.94471 c 0.72187,-0.28887 1.58437,-0.25335 1.91667,0.0789 0.33229,0.33229 -0.25834,0.56864 -1.3125,0.52522 -1.16495,-0.048 -1.4019,-0.28494 -0.60417,-0.60416 z M 57,141.60699 c 0,-0.21616 0.698372,-0.661 1.551938,-0.98855 0.889925,-0.34149 1.291322,-0.17385 0.940983,0.39301 C 58.905663,141.96166 57,142.4169 57,141.60699 Z m 127.75,-0.26927 c 0.6875,-0.27741 1.8125,-0.27741 2.5,0 0.6875,0.27741 0.125,0.50439 -1.25,0.50439 -1.375,0 -1.9375,-0.22698 -1.25,-0.50439 z m 53.0625,-0.0208 c 0.72187,-0.28887 1.58437,-0.25335 1.91667,0.0789 0.33229,0.33229 -0.25834,0.56864 -1.3125,0.52522 -1.16495,-0.048 -1.4019,-0.28494 -0.60417,-0.60416 z m -64,-1 c 0.72187,-0.28887 1.58437,-0.25335 1.91667,0.0789 0.33229,0.33229 -0.25834,0.56864 -1.3125,0.52522 -1.16495,-0.048 -1.4019,-0.28494 -0.60417,-0.60416 z m -7.54347,-1.00988 c 0.97297,-0.25354 2.32297,-0.23687 3,0.0371 0.67703,0.27393 -0.11903,0.48137 -1.76903,0.46099 -1.65,-0.0204 -2.20394,-0.2445 -1.23097,-0.49804 z M 65.75,138.33772 c 0.6875,-0.27741 1.8125,-0.27741 2.5,0 0.6875,0.27741 0.125,0.50439 -1.25,0.50439 -1.375,0 -1.9375,-0.22698 -1.25,-0.50439 z m 24.814293,-2.04459 c -0.542685,-1.4252 -0.427821,-1.54006 0.559795,-0.5598 0.683418,0.67834 0.990671,1.48524 0.682784,1.79313 -0.307887,0.30789 -0.867048,-0.24711 -1.242579,-1.23333 z m 64.896287,0.77065 c 0.3616,-0.58508 2.2809,-1.06378 4.2651,-1.06378 4.413,0 4.03248,0.50699 -1.07411,1.43112 -2.62045,0.47421 -3.63865,0.357 -3.19099,-0.36734 z m 9.35192,-1.74689 c 0.72187,-0.28887 1.58437,-0.25335 1.91667,0.0789 0.33229,0.33229 -0.25834,0.56864 -1.3125,0.52522 -1.16495,-0.048 -1.4019,-0.28494 -0.60417,-0.60416 z m 89.92083,-0.44098 c 0.67834,-0.68342 1.48524,-0.99067 1.79313,-0.68278 0.30789,0.30789 -0.24711,0.86705 -1.23333,1.24258 -1.4252,0.54268 -1.54006,0.42782 -0.5598,-0.5598 z M 172,134.07613 c 1.33333,-0.95656 1.33333,-1.1957 0,-2.15226 -1.33333,-0.95656 -1.33333,-1.03064 0,-0.66667 0.825,0.22521 1.5,1.00947 1.5,1.7428 0,0.73333 -0.675,1.51759 -1.5,1.7428 -1.33333,0.36397 -1.33333,0.28989 0,-0.66667 z M 262,129.5 c 1.86578,-1.925 3.61733,-3.5 3.89233,-3.5 0.275,0 -1.02655,1.575 -2.89233,3.5 -1.86578,1.925 -3.61733,3.5 -3.89233,3.5 -0.275,0 1.02655,-1.575 2.89233,-3.5 z m -113.73625,0.78242 c 1.52006,-0.22986 3.77006,-0.22371 5,0.0136 1.22994,0.23736 -0.0137,0.42542 -2.76375,0.41792 -2.75,-0.008 -3.75631,-0.20172 -2.23625,-0.43157 z M 135.25,129.31067 c 0.9625,-0.25152 2.5375,-0.25152 3.5,0 0.9625,0.25153 0.175,0.45733 -1.75,0.45733 -1.925,0 -2.7125,-0.2058 -1.75,-0.45733 z m -7.98097,-1.00366 c 0.97297,-0.25354 2.32297,-0.23687 3,0.0371 0.67703,0.27393 -0.11903,0.48137 -1.76903,0.46099 -1.65,-0.0204 -2.20394,-0.2445 -1.23097,-0.49804 z m -13.45653,-0.99012 c 0.72187,-0.28887 1.58437,-0.25335 1.91667,0.0789 0.33229,0.3323 -0.25834,0.56864 -1.3125,0.52522 -1.16495,-0.048 -1.4019,-0.28494 -0.60417,-0.60416 z m -4,-1 c 0.72187,-0.28887 1.58437,-0.25335 1.91667,0.0789 0.33229,0.3323 -0.25834,0.56864 -1.3125,0.52522 -1.16495,-0.048 -1.4019,-0.28494 -0.60417,-0.60416 z m 15.9375,-1.97917 c 0.6875,-0.27741 1.8125,-0.27741 2.5,0 0.6875,0.27741 0.125,0.50439 -1.25,0.50439 -1.375,0 -1.9375,-0.22698 -1.25,-0.50439 z m -4.98834,-5.04498 c 1.24391,-0.23919 3.04391,-0.23011 4,0.0202 0.95609,0.25029 -0.0617,0.446 -2.26166,0.4349 -2.2,-0.0111 -2.98225,-0.21589 -1.73834,-0.45508 z M 103.75,118.2766 c 1.7875,-0.22182 4.7125,-0.22182 6.5,0 1.7875,0.22183 0.325,0.40333 -3.25,0.40333 -3.575,0 -5.0375,-0.1815 -3.25,-0.40333 z M 95.5,117 c 1.1,-0.47269 3.35,-0.83782 5,-0.8114 l 3,0.048 -3,0.76337 c -1.65,0.41985 -3.9,0.78498 -5,0.8114 l -2,0.048 z M 22.083333,112.63266 C 23.261921,111.5936 30,111.01656 30,111.95469 30,112.52961 28.125,113 25.833333,113 c -2.291666,0 -3.979166,-0.1653 -3.75,-0.36734 z m 47,0.007 c 1.131427,-0.97984 9.009966,-1.59914 8.431244,-0.66275 C 77.166641,112.53939 75.033524,113 72.774316,113 c -2.259207,0 -3.920149,-0.16238 -3.690983,-0.36084 z M 86.75,112.33772 c 0.6875,-0.27741 1.8125,-0.27741 2.5,0 0.6875,0.27741 0.125,0.50439 -1.25,0.50439 -1.375,0 -1.9375,-0.22698 -1.25,-0.50439 z M 117,112 c -0.90129,-0.58246 -1.02463,-0.97549 -0.30902,-0.98469 0.65504,-0.008 1.4691,0.43469 1.80902,0.98469 0.7673,1.24153 0.42112,1.24153 -1.5,0 z m -81.1875,-0.68311 c 0.721875,-0.28887 1.584375,-0.25335 1.916667,0.0789 0.332291,0.3323 -0.258334,0.56864 -1.3125,0.52522 -1.164943,-0.048 -1.4019,-0.28494 -0.604167,-0.60416 z m 57.456532,-0.01 c 0.972967,-0.25354 2.322967,-0.23687 3,0.037 0.677032,0.27393 -0.119032,0.48137 -1.769032,0.46099 -1.65,-0.0204 -2.203936,-0.2445 -1.230968,-0.49804 z m 7.980968,0.004 c 0.9625,-0.25152 2.5375,-0.25152 3.5,0 0.9625,0.25153 0.175,0.45733 -1.75,0.45733 -1.925,0 -2.7125,-0.2058 -1.75,-0.45733 z m -51.4375,-0.99378 c 0.721875,-0.28887 1.584375,-0.25335 1.916667,0.0789 0.332291,0.3323 -0.258334,0.56864 -1.3125,0.52522 -1.164943,-0.048 -1.4019,-0.28494 -0.604167,-0.60416 z m -12,-1 c 0.721875,-0.28887 1.584375,-0.25335 1.916667,0.0789 0.332291,0.3323 -0.258334,0.56864 -1.3125,0.52522 -1.164943,-0.048 -1.4019,-0.28494 -0.604167,-0.60416 z m 17.456532,-0.01 c 0.972967,-0.25354 2.322967,-0.23687 3,0.037 0.677032,0.27393 -0.119032,0.48137 -1.769032,0.46099 -1.65,-0.0204 -2.203936,-0.2445 -1.230968,-0.49804 z M 41.8125,108.31689 c 0.721875,-0.28887 1.584375,-0.25335 1.916667,0.0789 0.332291,0.3323 -0.258334,0.56864 -1.3125,0.52522 -1.164943,-0.048 -1.4019,-0.28494 -0.604167,-0.60416 z m 20.9375,0.0208 c 0.6875,-0.27741 1.8125,-0.27741 2.5,0 0.6875,0.27741 0.125,0.50439 -1.25,0.50439 -1.375,0 -1.9375,-0.22698 -1.25,-0.50439 z m 29.75,-0.25072 3,-0.76672 -3.5,-0.54066 -3.5,-0.54066 3.5,0.13052 c 4.109758,0.15326 4.340726,2.04921 0.281089,2.30738 C 89.509148,108.85314 89.509868,108.8512 92.5,108.087 Z M 82,107.04569 c 0.825,-0.55829 2.3625,-1.02196 3.416667,-1.03038 2.558447,-0.0204 1.760261,0.55192 -1.916667,1.37439 -2.190916,0.49007 -2.595458,0.3973 -1.5,-0.34401 z m -22.1875,-2.7288 c 0.721875,-0.28887 1.584375,-0.25335 1.916667,0.0789 0.332291,0.3323 -0.258334,0.56864 -1.3125,0.52522 -1.164943,-0.048 -1.4019,-0.28494 -0.604167,-0.60416 z m 12,-3 c 0.721875,-0.28887 1.584375,-0.25335 1.916667,0.0789 0.332291,0.3323 -0.258334,0.56864 -1.3125,0.52522 -1.164943,-0.048 -1.4019,-0.28494 -0.604167,-0.60416 z m -17.543468,-1.00988 c 0.972967,-0.25354 2.322967,-0.23687 3,0.037 0.677032,0.27393 -0.119032,0.48137 -1.769032,0.46099 -1.65,-0.0204 -2.203936,-0.2445 -1.230968,-0.49804 z M 68.8125,99.316886 c 0.721875,-0.288871 1.584375,-0.253344 1.916667,0.07895 0.332291,0.332292 -0.258334,0.568641 -1.3125,0.52522 -1.164943,-0.04798 -1.4019,-0.284941 -0.604167,-0.604167 z m -6,-1 c 0.721875,-0.288871 1.584375,-0.253344 1.916667,0.07895 0.332291,0.332292 -0.258334,0.568641 -1.3125,0.52522 -1.164943,-0.04798 -1.4019,-0.284941 -0.604167,-0.604167 z m 21,-5 c 0.721875,-0.288871 1.584375,-0.253344 1.916667,0.07895 0.332291,0.332292 -0.258334,0.568641 -1.3125,0.52522 -1.164943,-0.04798 -1.4019,-0.284941 -0.604167,-0.604167 z m 12,-2 c 0.721875,-0.288871 1.584375,-0.253344 1.916667,0.07895 0.332291,0.332292 -0.258334,0.568641 -1.3125,0.52522 -1.164943,-0.04798 -1.4019,-0.284941 -0.604167,-0.604167 z m 10.45653,-3.009877 c 0.97297,-0.253543 2.32297,-0.236869 3,0.03705 0.67703,0.273923 -0.11903,0.481368 -1.76903,0.460988 -1.65,-0.02038 -2.20394,-0.244498 -1.23097,-0.498042 z M 88,86 c 0,-0.55 0.423442,-1 0.940983,-1 0.517541,0 1.219098,0.45 1.559017,1 0.339919,0.55 -0.08352,1 -0.940983,1 C 88.701558,87 88,86.55 88,86 Z m 9.269032,-1.692991 c 0.972967,-0.253543 2.322967,-0.236869 2.999998,0.03705 0.67703,0.273923 -0.11903,0.481368 -1.76903,0.460988 -1.65,-0.02038 -2.203936,-0.244498 -1.230968,-0.498042 z M 112.75,81.337719 c 0.6875,-0.277412 1.8125,-0.277412 2.5,0 0.6875,0.277413 0.125,0.504386 -1.25,0.504386 -1.375,0 -1.9375,-0.226973 -1.25,-0.504386 z m -1.48097,-3.03071 c 0.97297,-0.253543 2.32297,-0.236869 3,0.03705 0.67703,0.273923 -0.11903,0.481368 -1.76903,0.460988 -1.65,-0.02038 -2.20394,-0.244498 -1.23097,-0.498042 z m 33.54347,-6.990123 c 0.72187,-0.288871 1.58437,-0.253344 1.91667,0.07895 0.33229,0.332292 -0.25834,0.568641 -1.3125,0.52522 -1.16495,-0.04798 -1.4019,-0.284941 -0.60417,-0.604167 z M 261.87244,69.25 c -1.24387,-1.586056 -1.2085,-1.621426 0.37756,-0.377555 0.9625,0.754844 1.75,1.542344 1.75,1.75 0,0.823034 -0.82119,0.293303 -2.12756,-1.372445 z M 158.75,68.337719 c 0.6875,-0.277412 1.8125,-0.277412 2.5,0 0.6875,0.277413 0.125,0.504386 -1.25,0.504386 -1.375,0 -1.9375,-0.226973 -1.25,-0.504386 z M 165,67.622445 c 0,-0.207656 0.7875,-0.995156 1.75,-1.75 1.58606,-1.243871 1.62143,-1.208501 0.37756,0.377555 C 165.82119,67.915748 165,68.445479 165,67.622445 Z M 256.87244,64.25 C 255.62857,62.663944 255.66394,62.628574 257.25,63.872445 258.91575,65.178814 259.44548,66 258.62244,66 c -0.20765,0 -0.99515,-0.7875 -1.75,-1.75 z M 62.8125,64.316886 c 0.721875,-0.288871 1.584375,-0.253344 1.916667,0.07895 0.332291,0.332292 -0.258334,0.568641 -1.3125,0.52522 -1.164943,-0.04798 -1.4019,-0.284941 -0.604167,-0.604167 z M 156,64.200801 c 0,-0.43956 1.6875,-0.63862 3.75,-0.442357 6.43112,0.611973 6.95493,1.005025 1.5,1.125555 -2.8875,0.0638 -5.25,-0.243639 -5.25,-0.683198 z M 70.25,63.271532 c 2.0625,-0.215745 5.4375,-0.215745 7.5,0 2.0625,0.215744 0.375,0.392262 -3.75,0.392262 -4.125,0 -5.8125,-0.176518 -3.75,-0.392262 z m 93.5625,-1.954646 c 0.72187,-0.288871 1.58437,-0.253344 1.91667,0.07895 0.33229,0.332292 -0.25834,0.568641 -1.3125,0.52522 -1.16495,-0.04798 -1.4019,-0.284941 -0.60417,-0.604167 z M 109,59 c 0,-0.55 0.70156,-1 1.55902,-1 0.85746,0 1.2809,0.45 0.94098,1 -0.33992,0.55 -1.04148,1 -1.55902,1 C 109.42344,60 109,59.55 109,59 Z m 7,0.616577 c 0,-0.210882 1.125,-0.59848 2.5,-0.861328 1.375,-0.262848 2.5,-0.09031 2.5,0.383423 C 121,59.612402 119.875,60 118.5,60 117.125,60 116,59.82746 116,59.616577 Z m 62.75,-1.32231 c 1.2375,-0.238353 3.2625,-0.238353 4.5,0 1.2375,0.238353 0.225,0.433369 -2.25,0.433369 -2.475,0 -3.4875,-0.195016 -2.25,-0.433369 z m 67.75708,-0.282813 c -0.35034,-0.56686 0.0511,-0.734507 0.94098,-0.393011 C 249.18048,58.283234 249.49745,59 248.05902,59 c -0.51754,0 -1.21592,-0.444846 -1.55194,-0.988546 z M 190.25,57.310674 c 0.9625,-0.251527 2.5375,-0.251527 3.5,0 0.9625,0.251528 0.175,0.457323 -1.75,0.457323 -1.925,0 -2.7125,-0.205795 -1.75,-0.457323 z m 25,0 c 0.9625,-0.251527 2.5375,-0.251527 3.5,0 0.9625,0.251528 0.175,0.457323 -1.75,0.457323 -1.925,0 -2.7125,-0.205795 -1.75,-0.457323 z m 1.30764,-3.217415 c -0.30822,-0.498708 0.34022,-0.671224 1.44098,-0.383369 2.33499,0.610613 2.63015,1.29011 0.5604,1.29011 -0.79254,0 -1.69316,-0.408034 -2.00138,-0.906741 z M 211.25088,52 c 0.24816,-0.923341 1.71907,-1.55414 3.82613,-1.640829 3.13574,-0.129011 3.17151,-0.100459 0.42624,0.340233 -1.64821,0.264584 -3.36997,1.002957 -3.82613,1.640829 -0.56008,0.783184 -0.69848,0.672708 -0.42624,-0.340233 z m 12.01815,-0.692991 c 0.97297,-0.253543 2.32297,-0.236869 3,0.03705 0.67703,0.273923 -0.11903,0.481368 -1.76903,0.460988 -1.65,-0.02038 -2.20394,-0.244498 -1.23097,-0.498042 z M 112.56476,49.104785 c -0.3043,-0.492369 0.14251,-1.162214 0.99292,-1.488546 0.85041,-0.326332 1.28537,-0.171313 0.96659,0.344486 -0.3267,0.528616 1.94139,1.095614 5.19807,1.299461 l 5.77766,0.361645 -6.19098,0.189085 c -3.40504,0.103996 -6.43996,-0.213763 -6.74426,-0.706131 z m 19.1969,0.187954 c 1.24391,-0.239193 3.04391,-0.230112 4,0.02018 0.95609,0.250292 -0.0617,0.445996 -2.26166,0.434897 -2.2,-0.0111 -2.98225,-0.215885 -1.73834,-0.455077 z M 118.8125,46.316886 c 0.72187,-0.288871 1.58437,-0.253344 1.91667,0.07895 0.33229,0.332292 -0.25834,0.568641 -1.3125,0.52522 -1.16495,-0.04798 -1.4019,-0.284941 -0.60417,-0.604167 z m 62,-6 c 0.72187,-0.288871 1.58437,-0.253344 1.91667,0.07895 0.33229,0.332292 -0.25834,0.568641 -1.3125,0.52522 -1.16495,-0.04798 -1.4019,-0.284941 -0.60417,-0.604167 z M 169,39 c 0,-0.55 0.45,-1 1,-1 0.55,0 1,0.45 1,1 0,0.55 -0.45,1 -1,1 -0.55,0 -1,-0.45 -1,-1 z m 28.8125,0.316886 c 0.72187,-0.288871 1.58437,-0.253344 1.91667,0.07895 0.33229,0.332292 -0.25834,0.568641 -1.3125,0.52522 -1.16495,-0.04798 -1.4019,-0.284941 -0.60417,-0.604167 z m -24,-2 c 0.72187,-0.288871 1.58437,-0.253344 1.91667,0.07895 0.33229,0.332292 -0.25834,0.568641 -1.3125,0.52522 -1.16495,-0.04798 -1.4019,-0.284941 -0.60417,-0.604167 z"
         id="path6" />
      <path
         style="fill:#da7150"
         d="m 169,163.12127 c 6.33204,-2.24891 13.35473,-4.09987 13.81374,-3.64087 0.27814,0.27814 -0.91617,0.79009 -2.65402,1.13766 -1.73785,0.34756 -3.15972,1.07678 -3.15972,1.62048 0,1.21165 7.56889,0.18465 12.79548,-1.73617 L 193.5,159.14092 189,158.95215 c -4.16158,-0.17458 -4.27439,-0.24619 -1.5,-0.95215 4.81742,-1.22583 6.5,-1.09987 6.5,0.48658 0,2.62462 -6.97287,4.65709 -17.5,5.10096 -6.5463,0.27602 -9.13657,0.11498 -7.5,-0.46627 z m -56.76161,-4.66388 C 113.61451,157.02701 121,154.09205 121,154.97557 c 0,0.48278 -0.7875,1.11927 -1.75,1.41442 -0.9625,0.29514 0.47551,0.3735 3.19559,0.17411 2.75763,-0.20214 4.30605,-0.0138 3.5,0.4256 -1.96845,1.07317 -14.63217,2.42914 -13.7072,1.46769 z m -61.796382,-3.35811 c 1.068104,-0.41809 3.846625,-0.57008 6.174491,-0.33777 2.327866,0.23231 5.053962,-0.0395 6.057992,-0.60413 1.401339,-0.788 0.779901,-0.93398 -2.674491,-0.62825 -3.761443,0.3329 -4.007629,0.25952 -1.5,-0.44712 4.034086,-1.13678 10.5,-1.28476 10.5,-0.2403 0,1.503 -7.574653,3.16002 -14.11602,3.088 -4.014484,-0.0442 -5.663179,-0.35242 -4.441972,-0.83043 z m 87.035162,-2.57106 c 1.63745,-0.90493 3.30048,-2.16845 3.69563,-2.80781 0.39515,-0.63937 1.05364,-0.82731 1.4633,-0.41764 1.12314,1.12313 -1.74808,3.48122 -5.1361,4.2182 l -3,0.65257 z m -7.70872,-1.69667 c 0.5811,-0.5811 1.64682,-0.85979 2.36826,-0.61931 0.74895,0.24965 0.29565,0.70294 -1.05655,1.05655 -1.66335,0.43497 -2.05378,0.30483 -1.31171,-0.43724 z M 55,142.80769 C 55,142.36346 55.81,142 56.8,142 c 0.99,0 2.2275,-0.3919 2.75,-0.87089 1.491824,-1.3676 6.731033,-2.39285 5.974772,-1.16919 -0.353543,0.57204 -1.628748,1.05603 -2.833789,1.07552 l -2.190983,0.0354 2.292058,1.27226 c 2.097953,1.16451 1.865068,1.27225 -2.75,1.27225 C 57.268926,143.61538 55,143.25192 55,142.80769 Z m 12.557637,0.28557 c -0.308218,-0.49871 0.340224,-0.67122 1.440983,-0.38337 2.334987,0.61061 2.630147,1.29011 0.560397,1.29011 -0.792541,0 -1.693162,-0.40803 -2.00138,-0.90674 z m 7.525696,-0.46021 c 0.229167,-0.20182 2.614853,-0.60338 5.301524,-0.89236 2.986464,-0.32122 4.346662,-0.18457 3.5,0.35163 -1.296741,0.82125 -9.706735,1.33793 -8.801524,0.54073 z M 198.75,142.26276 c 2.8875,-0.202 7.6125,-0.202 10.5,0 2.8875,0.202 0.525,0.36728 -5.25,0.36728 -5.775,0 -8.1375,-0.16528 -5.25,-0.36728 z m 22.02643,0.004 c 2.35204,-0.21124 5.95204,-0.20827 8,0.007 2.04796,0.21487 0.12357,0.38771 -4.27643,0.38408 -4.4,-0.004 -6.07561,-0.17944 -3.72357,-0.39069 z M 188.75,141.33772 c 0.6875,-0.27741 1.8125,-0.27741 2.5,0 0.6875,0.27741 0.125,0.50439 -1.25,0.50439 -1.375,0 -1.9375,-0.22698 -1.25,-0.50439 z m 45,0 c 0.6875,-0.27741 1.8125,-0.27741 2.5,0 0.6875,0.27741 0.125,0.50439 -1.25,0.50439 -1.375,0 -1.9375,-0.22698 -1.25,-0.50439 z M 86.083333,140.63545 C 86.3125,140.43495 87.625,139.73513 89,139.08029 c 2.357268,-1.12265 2.389176,-1.10183 0.55887,0.36454 -1.592998,1.27626 -4.847861,2.39128 -3.475537,1.19062 z M 178.25,140.28375 c 1.5125,-0.22913 3.9875,-0.22913 5.5,0 1.5125,0.22912 0.275,0.41659 -2.75,0.41659 -3.025,0 -4.2625,-0.18747 -2.75,-0.41659 z m 63.48333,-0.40784 c 0.67834,-0.68342 1.48524,-0.99067 1.79313,-0.68278 0.30789,0.30789 -0.24711,0.86705 -1.23333,1.24258 -1.4252,0.54268 -1.54006,0.42782 -0.5598,-0.5598 z m -70.92083,-0.55902 c 0.72187,-0.28887 1.58437,-0.25335 1.91667,0.0789 0.33229,0.33229 -0.25834,0.56864 -1.3125,0.52522 -1.16495,-0.048 -1.4019,-0.28494 -0.60417,-0.60416 z m -101,-1 c 0.721875,-0.28887 1.584375,-0.25335 1.916667,0.0789 0.332291,0.33229 -0.258334,0.56864 -1.3125,0.52522 -1.164943,-0.048 -1.4019,-0.28494 -0.604167,-0.60416 z M 160.5,138 c -2.02841,-0.51614 -2.35227,-0.80611 -1,-0.89534 1.1,-0.0726 3.125,-0.38986 4.5,-0.70506 1.77238,-0.4063 2.10326,-0.29203 1.13685,0.3926 -1.15087,0.81531 -1.15087,1.05012 0,1.5078 2.07799,0.82638 -0.99041,0.62786 -4.63685,-0.3 z m 85.5,0.66521 c 0,-0.25826 1.45223,-0.97581 3.22717,-1.59456 1.77495,-0.61875 2.78745,-0.71335 2.25,-0.21022 C 250.33846,137.92644 246,139.356 246,138.66521 Z M 82.25,135.28375 c 1.5125,-0.22913 3.9875,-0.22913 5.5,0 1.5125,0.22912 0.275,0.41659 -2.75,0.41659 -3.025,0 -4.2625,-0.18747 -2.75,-0.41659 z m 85.5,0.054 c 0.6875,-0.27741 1.8125,-0.27741 2.5,0 0.6875,0.27741 0.125,0.50439 -1.25,0.50439 -1.375,0 -1.9375,-0.22698 -1.25,-0.50439 z M 173.42857,133 c 0,-1.69605 0.61332,-1.97568 4.03572,-1.83996 3.69102,0.14637 3.75813,0.19448 0.78571,0.56336 -3.73794,0.46387 -4.30955,1.93342 -1,2.57087 1.74667,0.33642 1.5709,0.46383 -0.78571,0.56955 -2.41445,0.10831 -3.03572,-0.27313 -3.03572,-1.86382 z m 82.6759,0.75 c 0.2408,-0.1375 2.9033,-2.5 5.91667,-5.25 l 5.47886,-5 -4.96241,5.25 c -2.72932,2.8875 -5.39182,5.25 -5.91666,5.25 -0.52485,0 -0.75725,-0.1125 -0.51646,-0.25 z M 158.75,130.26779 c 2.3375,-0.21053 6.1625,-0.21053 8.5,0 2.3375,0.21054 0.425,0.3828 -4.25,0.3828 -4.675,0 -6.5875,-0.17226 -4.25,-0.3828 z m -16.5,-0.98404 c 1.5125,-0.22913 3.9875,-0.22913 5.5,0 1.5125,0.22912 0.275,0.41659 -2.75,0.41659 -3.025,0 -4.2625,-0.18747 -2.75,-0.41659 z m -10.5,-0.94603 c 0.6875,-0.27741 1.8125,-0.27741 2.5,0 0.6875,0.27741 0.125,0.50439 -1.25,0.50439 -1.375,0 -1.9375,-0.22698 -1.25,-0.50439 z M 112,126.5 c -4.45061,-1.28934 -4.39573,-1.30288 5,-1.23372 5.4308,0.04 7.78665,0.29815 5.5,0.60275 l -4,0.53283 5.5,0.63607 5.5,0.63608 -6.5,0.0648 c -3.575,0.0357 -8.525,-0.52182 -11,-1.23883 z m 18.55887,-2.93284 c 1.85532,-1.3695 1.78641,-1.50039 -1.55887,-2.96086 l -3.5,-1.52802 3.30902,-0.0391 c 1.81996,-0.0215 3.06004,0.36371 2.75574,0.85608 -0.3043,0.49236 0.16982,1.17269 1.05361,1.51183 1.30103,0.49925 1.3718,0.89987 0.37181,2.10478 -0.67929,0.81849 -1.94098,1.48817 -2.80375,1.48817 -1.25163,0 -1.17635,-0.2896 0.37244,-1.43284 z m -18.02226,-5.50793 c -0.34668,-0.56094 0.94165,-0.70566 3.19098,-0.35845 5.02159,0.77513 5.42421,1.29922 0.99809,1.29922 -1.9842,0 -3.86929,-0.42334 -4.18907,-0.94077 z M 103.5,116.37702 c 3.3,-0.80099 7.575,-1.28915 9.5,-1.08479 2.89218,0.30704 2.6751,0.40076 -1.25,0.53967 -2.6125,0.0924 -4.75,0.6181 -4.75,1.1681 0,0.55 -2.1375,0.96251 -4.75,0.91669 l -4.75,-0.0833 z M 269,116 c 0,-0.55 0.45,-1 1,-1 0.55,0 1,0.45 1,1 0,0.55 -0.45,1 -1,1 -0.55,0 -1,-0.45 -1,-1 z m -151.13112,-2.34201 c 1.6944,-2.04163 0.36675,-2.64113 -6.28555,-2.83824 -5.95057,-0.17631 -5.97566,-0.18858 -1.1496,-0.56229 6.07006,-0.47004 9.56627,0.32971 9.56627,2.18827 0,0.77419 0.7875,1.61342 1.75,1.86494 0.9625,0.25153 0.2324,0.50953 -1.62244,0.57333 -2.71465,0.0934 -3.15521,-0.14576 -2.25868,-1.22601 z M 30,112.18402 c 0,-0.57708 0.7875,-1.29749 1.75,-1.6009 2.29219,-0.72257 22.592203,-1.59199 21.939867,-0.93965 -0.275976,0.27597 -4.706596,0.86866 -9.845821,1.31708 C 38.704821,111.40896 33.4875,112.10377 32.25,112.50456 30.883264,112.9472 30,112.82137 30,112.18402 Z m 48.44113,-0.71582 c 1.067621,-0.80751 3.317621,-1.47434 5,-1.48185 1.682378,-0.008 4.18387,-0.24175 5.55887,-0.52053 2.149465,-0.4358 2.219572,-0.37797 0.5,0.41245 -1.35152,0.62124 0.593919,0.80768 6,0.575 l 8,-0.34432 -7.5,0.89758 c -4.125,0.49366 -8.343853,0.64594 -9.375229,0.33839 -1.216623,-0.36279 -1.634913,-0.17035 -1.190983,0.54795 0.46497,0.75233 -0.856868,1.09694 -4.124771,1.07533 -4.445879,-0.0294 -4.662439,-0.14267 -2.867887,-1.5 z m 193.63782,-2.05153 c 0.048,-1.16495 0.28494,-1.4019 0.60416,-0.60417 0.28887,0.72187 0.25335,1.58437 -0.0789,1.91667 -0.33229,0.33229 -0.56864,-0.25834 -0.52522,-1.3125 z M 50,106.92747 c 3.575,-1.05581 7.4,-1.89548 8.5,-1.86592 1.1,0.0296 -1.15,0.90186 -5,1.93845 -9.147987,2.46304 -11.892868,2.40616 -3.5,-0.0725 z m 8.75,1.41025 c 0.6875,-0.27741 1.8125,-0.27741 2.5,0 0.6875,0.27741 0.125,0.50439 -1.25,0.50439 -1.375,0 -1.9375,-0.22698 -1.25,-0.50439 z m 36.5,-0.49919 c 0.1375,-0.63882 -0.875,-1.49396 -2.25,-1.90032 -2.164975,-0.63984 -1.989553,-0.75221 1.309017,-0.83853 2.141715,-0.0561 3.555115,0.31114 3.228968,0.83886 -0.319028,0.5162 0.216915,1.40251 1.190983,1.96959 1.527562,0.88931 1.392972,1.03523 -0.978968,1.06146 -1.577524,0.0174 -2.643411,-0.46479 -2.5,-1.13106 z m -25,-0.567 c 2.0625,-0.21574 5.4375,-0.21574 7.5,0 2.0625,0.21575 0.375,0.39226 -3.75,0.39226 -4.125,0 -5.8125,-0.17651 -3.75,-0.39226 z M 273.33621,100 c 0,-4.125 0.17651,-5.8125 0.39226,-3.75 0.21574,2.0625 0.21574,5.4375 0,7.5 -0.21575,2.0625 -0.39226,0.375 -0.39226,-3.75 z M 65,103 c 1.938759,-1.25292 3,-1.25292 3,0 0,0.55 -1.0125,0.99311 -2.25,0.98469 C 63.930562,103.9723 63.787041,103.78387 65,103 Z m 11.75,-2.39054 c 6.025134,-2.665909 -0.400966,-3.528998 -8.341069,-1.120284 -5.518194,1.674004 -9.322285,1.982654 -7.858931,0.637654 0.5225,-0.480236 5,-1.849986 9.95,-3.043885 4.95,-1.193898 11.832197,-2.881276 15.293771,-3.74973 3.461574,-0.868453 6.570949,-1.301828 6.909722,-0.963055 0.338773,0.338773 -0.89736,0.918613 -2.746963,1.288534 -2.90799,0.581598 -3.098692,0.787531 -1.409722,1.522313 1.484228,0.645708 1.292913,0.721414 -0.796808,0.315309 C 86.2375,95.202385 85,95.389171 85,95.911397 c 0,0.522226 -1.0125,1.093299 -2.25,1.269052 -1.502114,0.213334 -2.15233,0.90124 -1.956163,2.069551 0.196768,1.17189 -0.354323,1.75 -1.668213,1.75 -1.079127,0 -2.561353,0.13613 -3.293837,0.30251 -0.732483,0.16637 -0.319287,-0.1455 0.918213,-0.69305 z M 91,94.968615 C 91,94.435877 91.675,94 92.5,94 c 0.825,0 1.5,0.176855 1.5,0.393011 0,0.216156 -0.675,0.652033 -1.5,0.968615 -0.825,0.316583 -1.5,0.139728 -1.5,-0.393011 z m 7.817958,-4.186573 c 0.533281,-0.533281 1.804902,-0.792548 2.825822,-0.576149 1.37482,0.291413 1.12336,0.542875 -0.9696,0.969603 -1.824824,0.372058 -2.482359,0.232683 -1.856222,-0.393454 z m 5.994542,-1.465156 c 0.72187,-0.288871 1.58437,-0.253344 1.91667,0.07895 0.33229,0.332292 -0.25834,0.568641 -1.3125,0.52522 -1.16495,-0.04798 -1.4019,-0.284941 -0.60417,-0.604167 z m 6,-1 c 0.72187,-0.288871 1.58437,-0.253344 1.91667,0.07895 0.33229,0.332292 -0.25834,0.568641 -1.3125,0.52522 -1.16495,-0.04798 -1.4019,-0.284941 -0.60417,-0.604167 z m 160.26645,-1.900219 c 0.048,-1.164943 0.28494,-1.4019 0.60416,-0.604167 0.28887,0.721875 0.25335,1.584375 -0.0789,1.916667 -0.33229,0.332291 -0.56864,-0.258334 -0.52522,-1.3125 z M 90,85.667677 c 0,-0.311012 2.5875,-1.322002 5.75,-2.246644 3.1625,-0.924643 7.44661,-2.297638 9.52024,-3.0511 C 109.74062,78.745597 111.34542,78.63208 110.5,80 c -0.33992,0.55 -1.82898,1.053242 -3.30902,1.118315 -2.68109,0.11788 -2.67995,0.120844 0.30902,0.806297 2.52058,0.578039 1.80146,0.86772 -4.5,1.812708 -4.125,0.618599 -8.7375,1.433225 -10.25,1.81028 C 91.2375,85.924655 90,85.97869 90,85.667677 Z m 31.8125,-0.350791 c 0.72187,-0.288871 1.58437,-0.253344 1.91667,0.07895 0.33229,0.332292 -0.25834,0.568641 -1.3125,0.52522 -1.16495,-0.04798 -1.4019,-0.284941 -0.60417,-0.604167 z m 3.73282,-1.390212 C 125.96063,83.254678 131,83.906728 131,84.632462 c 0,0.219619 -1.31887,0.298813 -2.93081,0.175987 -1.61195,-0.122827 -2.74769,-0.519625 -2.52387,-0.881775 z m 11.26718,-1.609788 c 0.72187,-0.288871 1.58437,-0.253344 1.91667,0.07895 0.33229,0.332292 -0.25834,0.568641 -1.3125,0.52522 -1.16495,-0.04798 -1.4019,-0.284941 -0.60417,-0.604167 z M 111.57201,80.87971 c 0.21213,-0.34116 3.88271,-0.882652 8.15684,-1.203316 C 124.00298,79.35573 128.85,78.845292 130.5,78.542087 l 3,-0.551282 -3,1.154542 c -1.65,0.634998 -3.225,1.424566 -3.5,1.754597 -0.66459,0.797577 -15.92405,0.777563 -15.42799,-0.02023 z M 116,78 c 0.825,-0.533156 2.175,-0.944637 3,-0.914402 0.98906,0.03625 0.81874,0.34772 -0.5,0.914402 -2.74909,1.181322 -4.32797,1.181322 -2.5,0 z m 151,-1 c -0.5887,-1.1 -0.84537,-2 -0.57037,-2 0.275,0 0.98167,0.9 1.57037,2 0.5887,1.1 0.84537,2 0.57037,2 -0.275,0 -0.98167,-0.9 -1.57037,-2 z m -126.73097,0.307009 c 0.97297,-0.253543 2.32297,-0.236869 3,0.03705 0.67703,0.273923 -0.11903,0.481368 -1.76903,0.460988 -1.65,-0.02038 -2.20394,-0.244498 -1.23097,-0.498042 z M 122.5,76.007244 c 1.91052,-0.827897 9.28402,-1.395691 8.41667,-0.648122 -0.22917,0.197518 -2.66667,0.619149 -5.41667,0.936959 -3.21675,0.371751 -4.2867,0.268737 -3,-0.288837 z M 136.5,73 c 1.1,-0.472686 2.675,-0.859429 3.5,-0.859429 0.94548,0 0.76064,0.317714 -0.5,0.859429 -1.1,0.472686 -2.675,0.859429 -3.5,0.859429 -0.94548,0 -0.76064,-0.317714 0.5,-0.859429 z M 262.92431,71.25 260.5,68.5 l 2.75,2.424314 C 265.82029,73.190201 266.45859,74 265.67431,74 c -0.17912,0 -1.41662,-1.2375 -2.75,-2.75 z M 148.5,71.046696 c 1.91971,-0.869749 7.27585,-1.436823 6.41667,-0.679356 -0.22917,0.202037 -2.21667,0.641422 -4.41667,0.976411 -2.7878,0.424492 -3.3939,0.334469 -2,-0.297055 z m 8.25,-1.708977 c 0.6875,-0.277412 1.8125,-0.277412 2.5,0 0.6875,0.277413 0.125,0.504386 -1.25,0.504386 -1.375,0 -1.9375,-0.226973 -1.25,-0.504386 z m 6,-1 c 0.6875,-0.277412 1.8125,-0.277412 2.5,0 0.6875,0.277413 0.125,0.504386 -1.25,0.504386 -1.375,0 -1.9375,-0.226973 -1.25,-0.504386 z M 53.539663,67.064175 c -0.644242,-1.042404 8.192572,-2.665274 9.173199,-1.684646 0.341259,0.341259 -0.467029,0.691168 -1.796195,0.777575 C 59.5875,66.243511 60.75,66.622814 63.5,67 c 4.897757,0.671769 4.852954,0.689005 -2.190983,0.842896 -3.955041,0.08641 -7.45125,-0.264017 -7.769354,-0.778721 z M 78.75,67.267795 c 4.409721,-0.397176 5.953021,-2.20804 2,-2.346742 -1.2375,-0.04342 -1.664633,-0.313544 -0.949184,-0.600272 0.715448,-0.286729 2.658317,0.04097 4.317486,0.728221 4.075019,1.687928 1.930894,2.969759 -4.618302,2.760978 l -5,-0.159394 z M 255.40499,63.75 253.5,61.5 l 2.25,1.904988 c 1.2375,1.047743 2.25,2.060243 2.25,2.25 0,0.800253 -0.80479,0.209457 -2.59501,-1.904988 z M 65.8125,64.316886 c 0.721875,-0.288871 1.584375,-0.253344 1.916667,0.07895 0.332291,0.332292 -0.258334,0.568641 -1.3125,0.52522 -1.164943,-0.04798 -1.4019,-0.284941 -0.604167,-0.604167 z m 95.6875,-0.25034 -5,-0.619246 4.5,-0.839779 c 2.475,-0.461879 5.175,-1.177221 6,-1.58965 0.825,-0.412428 3.975,-1.005403 7,-1.317722 3.55324,-0.366858 4.61511,-0.272593 3,0.266319 -1.375,0.458795 -3.85,0.885919 -5.5,0.949165 -1.65,0.06325 -3.675,0.558102 -4.5,1.09968 -1.33333,0.875277 -1.33333,1.094097 0,1.969374 0.825,0.541578 1.05,0.920882 0.5,0.842897 -0.55,-0.07799 -3.25,-0.420452 -6,-0.761038 z M 111.5,59 c 0.33992,-0.55 2.50398,-0.955144 4.80902,-0.90032 3.57945,0.08514 3.82619,0.216506 1.69098,0.90032 -3.63936,1.165525 -7.22033,1.165525 -6.5,0 z m 74.76903,-0.692991 c 0.97297,-0.253543 2.32297,-0.236869 3,0.03705 0.67703,0.273923 -0.11903,0.481368 -1.76903,0.460988 -1.65,-0.02038 -2.20394,-0.244498 -1.23097,-0.498042 z m 33.87186,-0.976776 c 0.56721,-0.683443 0.74099,-1.712335 0.38618,-2.286428 -0.76165,-1.23238 1.15772,-1.253542 3.97293,-0.0438 1.90836,0.820049 1.8969,0.86265 -0.25,0.929715 -2.42121,0.07563 -3.04472,1.579958 -1,2.412699 0.6875,0.279994 0.0372,0.446386 -1.4452,0.369761 -2.02671,-0.104764 -2.4394,-0.447523 -1.66391,-1.381942 z M 196.25,57.310674 c 0.9625,-0.251527 2.5375,-0.251527 3.5,0 0.9625,0.251528 0.175,0.457323 -1.75,0.457323 -1.925,0 -2.7125,-0.205795 -1.75,-0.457323 z m 14.5,0.02705 c 0.6875,-0.277412 1.8125,-0.277412 2.5,0 0.6875,0.277413 0.125,0.504386 -1.25,0.504386 -1.375,0 -1.9375,-0.226973 -1.25,-0.504386 z m 4,-4.053973 c -4.79644,-0.7266 -2.96497,-2.289881 2.5,-2.133914 3.24804,0.0927 4.13488,0.315104 2.32567,0.583244 -2.20037,0.326116 -2.57171,0.656575 -1.5,1.334855 0.78338,0.495794 0.97433,0.84091 0.42433,0.766924 -0.55,-0.07399 -2.2375,-0.321985 -3.75,-0.551109 z m -86.9375,-3.96686 c 0.72187,-0.288871 1.58437,-0.253344 1.91667,0.07895 0.33229,0.332292 -0.25834,0.568641 -1.3125,0.52522 -1.16495,-0.04798 -1.4019,-0.284941 -0.60417,-0.604167 z M 114.43171,48.110488 C 115.10947,47.013856 120.43705,46.078075 129,45.551593 l 6.5,-0.399644 -6.94869,0.770101 c -3.82178,0.423556 -7.12178,1.289368 -7.33334,1.924026 C 121.00642,48.480734 119.26928,49 117.35765,49 c -1.91163,0 -3.2283,-0.40028 -2.92594,-0.889512 z m 21.32452,0.286468 c 0.69093,-0.312277 0.96579,-1.037721 0.6108,-1.612098 -0.35498,-0.574377 -0.099,-0.862192 0.56877,-0.63959 1.83283,0.610942 1.41388,2.323279 -0.63298,2.587098 -0.99155,0.127801 -1.23752,-0.02313 -0.54659,-0.33541 z M 177.25,40.231912 c -6.9797,-0.365565 -8.21505,-1.645424 -2.5,-2.590064 4.83881,-0.799805 22.60935,-0.824917 24.66821,-0.03486 2.26561,0.869394 1.95065,1.859109 -0.66821,2.099805 -6.33525,0.582262 -15.93317,0.816683 -21.5,0.525119 z m 13.5,-1.948166 c -1.5125,-0.229125 -3.9875,-0.229125 -5.5,0 -1.5125,0.229124 -0.275,0.41659 2.75,0.41659 3.025,0 4.2625,-0.187466 2.75,-0.41659 z"
         id="path5" />
      <path
         style="fill:#f38d08"
         d="m 204.5,128.87758 c -8.25,-0.40534 -17.7,-1.40613 -21,-2.22397 l -6,-1.48698 4.55,-0.0833 c 2.5025,-0.0458 4.9775,-0.49372 5.5,-0.99532 0.5225,-0.50161 3.425,-1.11219 6.45,-1.35685 3.025,-0.24466 9.55,-1.05844 14.5,-1.8084 l 9,-1.36356 -6.5,-0.71036 c -3.575,-0.3907 -13.87583,-1.17984 -22.89073,-1.75365 -9.0149,-0.57381 -16.6274,-1.27996 -16.91666,-1.56923 -1.06961,-1.0696 0.67009,-1.5313 9.88059,-2.62221 15.78633,-1.86976 16.93528,-2.081 16.36221,-3.00823 -0.30439,-0.49253 -2.66439,-0.89177 -5.24443,-0.88721 -6.05879,0.0107 -27.71024,-1.89102 -36.60561,-3.2152 -8.40616,-1.25136 -7.09867,-2.29084 4.06048,-3.22816 9.1256,-0.7665 28.12271,-4.000157 29.07096,-4.948406 0.33909,-0.339088 -8.57098,-0.669766 -19.80014,-0.734839 C 144.04841,96.737573 139.12453,96.02852 150,94.157626 c 8.06806,-1.387939 18.26305,-3.850281 21.5,-5.192781 4.25409,-1.764352 -29.44529,-0.312572 -37.75,1.626282 -1.5125,0.353115 -2.75,0.243587 -2.75,-0.243395 0,-1.559217 16.90265,-6.175762 37.78858,-10.321026 11.15872,-2.214688 21.50872,-4.033597 23,-4.042019 1.49128,-0.0084 3.31165,-0.395798 4.04527,-0.860836 1.87372,-1.187752 -0.81181,-2.119495 -6.16564,-2.139164 -2.29251,-0.0084 -4.76556,-0.394017 -5.49565,-0.856879 -1.90548,-1.208028 14.16925,-1.885531 27.32744,-1.151771 15.37867,0.857583 15.46503,0.302743 0.71796,-4.612427 L 202.5,63.124632 l 8.32281,-0.06232 c 8.92615,-0.06683 22.69379,2.748486 29.61502,6.055921 2.16581,1.03497 4.33473,1.881763 4.81982,1.881763 3.30591,0 17.40183,12.655049 20.566,18.463767 2.23939,4.111043 2.1362,16.809887 -0.17275,21.257237 -4.64721,8.95114 -19.35973,16.52928 -34.58987,17.81658 -3.60857,0.30501 -7.68603,0.67211 -9.06103,0.81578 -1.375,0.14367 -9.25,-0.0704 -17.5,-0.47578 z m 33.86592,-8.34929 c 19.39424,-5.16854 27.34115,-15.27923 21.33121,-27.139268 C 255.87163,85.839761 245.60504,77.143516 238.5,75.434144 l -3,-0.721758 3.85018,3.789238 c 2.1176,2.084082 3.0176,3.434219 2,3.000306 C 235.46612,78.992917 213,75.46793 213,77.05372 c 0,0.418075 2.475,1.538619 5.5,2.490098 3.025,0.951479 5.49925,1.780862 5.49832,1.843072 -9.2e-4,0.06221 -7.76342,0.146458 -17.25,0.187217 -9.82708,0.04222 -18.32397,0.533697 -19.74832,1.142278 l -2.5,1.068171 2.5,0.580227 c 1.375,0.319124 8.8,1.770715 16.5,3.225757 7.7,1.455042 14.4275,3.042415 14.95,3.527496 0.55532,0.515551 -2.35284,0.923376 -7,0.981644 -4.3725,0.05482 -9.075,0.436879 -10.45,0.84901 -2.18945,0.656248 -1.94101,0.824823 2,1.357065 2.475,0.334253 6.975,0.862108 10,1.173011 3.025,0.310902 7.525,0.856106 10,1.211565 l 4.5,0.646289 -7,1.787782 c -3.85,0.983278 -11.21946,2.320278 -16.37659,2.971098 -13.41942,1.69351 -9.6426,2.94006 11.02653,3.63931 9.3747,0.31716 16.43856,0.88064 15.69748,1.25218 -0.74108,0.37154 -4.04742,1.41583 -7.34742,2.32064 -17.62045,4.83127 -17.63743,4.68669 0.5,4.2581 18.4704,-0.43646 18.45027,-0.47084 3.26362,5.57416 -4.26999,1.69965 -7.98862,3.32573 -8.26362,3.61351 -0.95102,0.9952 13.52206,-0.66773 19.36592,-2.22511 z"
         id="path4" />
      <path
         style="fill:#f05610"
         d="m 177,162.35702 c 0,-1.35115 7.49591,-3.36483 12.23425,-3.28656 l 4.26575,0.0705 -3.70452,1.36145 C 184.88244,162.30795 177,163.45048 177,162.35702 Z m -58,-6.08591 c 0.825,-0.31405 1.725,-0.88649 2,-1.27209 0.70218,-0.98459 16.12632,-5.83927 18.25,-5.7441 4.60349,0.20628 -0.56848,3.3311 -10.1815,6.15151 -4.96439,1.45652 -13.5632,2.19498 -10.0685,0.86468 z m -63.916667,-1.63352 c 0.229167,-0.19933 2.418279,-0.61846 4.864694,-0.93141 2.877588,-0.3681 3.936781,-0.24555 3,0.3471 -1.336416,0.84548 -8.802714,1.40019 -7.864694,0.58431 z M 62,142.01881 c -1.282401,-0.84483 -1.244166,-0.99041 0.263569,-1.0035 0.969963,-0.008 2.544963,-0.41176 3.5,-0.89631 C 71.921489,136.99472 91,134.67929 91,137.05623 c 0,0.58093 -1.969677,1.92751 -4.377061,2.99241 C 81.611857,142.26528 64.457594,143.63786 62,142.01881 Z m 140.5,-0.0737 c -14.15993,-0.78792 -34.20114,-2.73359 -36.91289,-3.58362 -3.02734,-0.94896 0.17335,-2.26256 7.3374,-3.01135 3.34152,-0.34926 6.07549,-1.02091 6.07549,-1.49256 0,-0.47165 1.2375,-0.88606 2.75,-0.92093 2.68224,-0.0618 2.69343,-0.0861 0.45394,-0.98481 -1.26283,-0.50678 -11.83783,-1.40033 -23.5,-1.98567 -11.66216,-0.58533 -23.64909,-1.49216 -26.6376,-2.01518 -2.98851,-0.52302 -7.26351,-1.00528 -9.5,-1.07169 -3.58489,-0.10644 -3.35595,-0.2262 1.93366,-1.01146 3.3,-0.48989 6.675,-1.26782 7.5,-1.72873 0.825,-0.4609 4.875,-0.93285 9,-1.04878 4.125,-0.11593 9.075,-0.5876 11,-1.04817 l 3.5,-0.8374 -3,-0.11506 c -1.65,-0.0633 -10.875,-0.84939 -20.5,-1.74691 -9.625,-0.89753 -19.1875,-1.59907 -21.25,-1.55899 -6.79861,0.13212 -3.90317,-1.49402 3.92294,-2.2032 4.22012,-0.38242 8.41203,-1.09085 9.31537,-1.5743 0.90333,-0.48345 4.64812,-1.02013 8.32175,-1.19263 3.67364,-0.1725 6.68173,-0.58077 6.68464,-0.90727 0.007,-0.7633 -28.52593,-1.84676 -41.28282,-1.56762 -5.383466,0.11779 -8.983466,-0.1036 -8,-0.492 0.983466,-0.38839 3.81312,-0.74469 6.28812,-0.79177 2.620571,-0.0498 3.979628,-0.41604 3.254051,-0.8768 -0.728102,-0.46235 2.596899,-1.38676 7.999999,-2.22413 8.63608,-1.33841 8.94913,-1.4666 4.74595,-1.94348 -2.475,-0.28081 -4.73548,-0.19908 -5.02329,0.18163 -0.2878,0.3807 -2.7628,0.75632 -5.5,0.8347 -6.723111,0.19252 -25.872362,1.78411 -43.332008,3.60155 -7.895414,0.82186 -14.503279,1.34632 -14.684143,1.16545 -0.180865,-0.18086 5.154019,-1.64701 11.855298,-3.2581 C 62.017136,104.92473 67.725,103.31323 68,102.9547 c 0.275,-0.35852 3.105716,-0.95106 6.29048,-1.31675 7.582756,-0.87069 8.098957,-0.98666 8.827394,-1.983142 0.33983,-0.464878 2.25233,-0.891562 4.25,-0.948188 C 89.365543,98.649954 91,98.242808 91,97.801812 c 0,-0.440997 1.0125,-0.845011 2.25,-0.897809 1.2375,-0.0528 4.5,-0.657684 7.25,-1.344191 l 5,-1.248195 -7.249485,0.09419 c -3.987217,0.05181 -7.249717,0.389562 -7.25,0.750571 C 91.000232,95.51739 90.1,95.577405 89,95.289749 87.881812,94.997336 87,95.259067 87,95.883369 87,96.497516 86.55,97 86,97 c -0.55,0 -1,-0.408118 -1,-0.906928 0,-1.04194 7.15891,-3.262854 18,-5.584155 4.125,-0.883247 9.075,-2.027023 11,-2.541725 10.77139,-2.880026 12.70851,-3.277167 14.86235,-3.047031 1.4089,0.15054 2.10648,-0.161586 1.72838,-0.773352 -0.35022,-0.566679 0.27083,-1.052854 1.38766,-1.086288 1.11188,-0.03329 3.02024,-0.08106 4.2408,-0.106159 1.22055,-0.0251 2.45805,-0.429985 2.75,-0.899742 0.29194,-0.469757 2.10581,-0.988295 4.03081,-1.152307 1.925,-0.164011 4.01328,-0.673381 4.64063,-1.131933 0.62735,-0.458552 2.53895,-0.931977 4.24801,-1.052055 1.70906,-0.120079 3.10828,-0.588888 3.10937,-1.041799 0.002,-0.760517 -11.33322,-0.381269 -21.99801,0.736008 -2.475,0.259289 -8.22202,0.780911 -12.77115,1.15916 -4.54913,0.378249 -8.51319,1.079356 -8.80902,1.558016 -0.29582,0.478659 -1.97381,0.818089 -3.72885,0.754289 -1.96899,-0.07158 -2.42508,-0.282795 -1.19098,-0.551549 1.1,-0.23955 2.9,-0.812904 4,-1.274119 1.1,-0.461216 5.6,-1.599854 10,-2.530308 4.4,-0.930454 9.35,-2.063042 11,-2.516862 4.79652,-1.319246 12.22823,-2.790262 23.5,-4.651535 5.775,-0.953608 10.725,-2.050285 11,-2.437061 0.275,-0.386775 3.10665,-0.921733 6.29256,-1.188794 6.60283,-0.553486 8.71891,-1.657039 3.62411,-1.889996 -1.87917,-0.08592 -4.63215,-0.213906 -6.11774,-0.284406 -2.92066,-0.138602 -4.52792,-1.163708 -3.47518,-2.21645 1.62277,-1.622769 38.12653,-5.794277 43.17625,-4.934012 8.05821,1.372788 19.75663,1.815348 19.08081,0.721842 C 228.19644,57.508837 227.20697,57 226.38197,57 c -0.825,0 -1.25404,-0.397986 -0.95341,-0.884412 0.30063,-0.486427 -1.58531,-1.491008 -4.19098,-2.232401 L 216.5,52.535199 l 5.72693,-0.316815 c 11.16888,-0.617865 27.87138,6.208214 36.8739,15.069854 6.39714,6.297029 9.7598,11.652977 12.05614,19.202643 2.83091,9.307203 2.1006,26.495829 -1.21277,28.543599 -0.66024,0.40805 -0.88615,1.25043 -0.50203,1.87195 2.08795,3.37838 -11.21287,16.62288 -20.10854,20.0234 -3.2085,1.2265 -6.58473,2.62512 -7.50275,3.10805 -0.91802,0.48292 -5.86802,1.13928 -11,1.45857 -5.13198,0.31928 -10.90588,0.70108 -12.83088,0.84844 -1.925,0.14735 -8.9,-0.0326 -15.5,-0.39982 z m 28.56103,-13.40749 c 15.23014,-1.2873 29.94266,-8.86544 34.58987,-17.81658 2.30895,-4.44735 2.41214,-17.14619 0.17275,-21.257233 C 262.65948,83.655049 248.56356,71 245.25765,71 c -0.48509,0 -2.65401,-0.846793 -4.81982,-1.881763 -6.92123,-3.307435 -20.68887,-6.122754 -29.61502,-6.055921 l -8.32281,0.06232 9.71796,3.238978 c 14.74707,4.91517 14.66071,5.47001 -0.71796,4.612427 -13.15819,-0.73376 -29.23292,-0.05626 -27.32744,1.151771 0.73009,0.462862 3.20314,0.848457 5.49565,0.856879 5.35383,0.01967 8.03936,0.951412 6.16564,2.139164 -0.73362,0.465038 -2.55399,0.852414 -4.04527,0.860836 -1.49128,0.0084 -11.84128,1.827331 -23,4.042019 C 147.90265,84.17197 131,88.788515 131,90.347732 c 0,0.486982 1.2375,0.59651 2.75,0.243395 8.30471,-1.938854 42.00409,-3.390634 37.75,-1.626282 -3.23695,1.3425 -13.43194,3.804842 -21.5,5.192781 -10.87547,1.870894 -5.95159,2.579947 18.91667,2.724059 11.22916,0.06507 20.13923,0.395751 19.80014,0.734839 -0.94825,0.948249 -19.94536,4.181906 -29.07096,4.948406 -11.15915,0.93732 -12.46664,1.9768 -4.06048,3.22816 8.89537,1.32418 30.54682,3.22591 36.60561,3.2152 2.58004,-0.005 4.94004,0.39468 5.24443,0.88721 0.57307,0.92723 -0.57588,1.13847 -16.36221,3.00823 -9.2105,1.09091 -10.9502,1.55261 -9.88059,2.62221 0.28926,0.28927 7.90176,0.99542 16.91666,1.56923 9.0149,0.57381 19.31573,1.36295 22.89073,1.75365 l 6.5,0.71036 -9,1.36356 c -4.95,0.74996 -11.475,1.56374 -14.5,1.8084 -3.025,0.24466 -5.9275,0.85524 -6.45,1.35685 -0.5225,0.5016 -2.9975,0.9495 -5.5,0.99532 l -4.55,0.0833 6,1.48698 c 5.56924,1.38022 32.832,3.29198 38.5,2.69975 1.375,-0.14367 5.45246,-0.51077 9.06103,-0.81578 z M 63.5,67.119087 l -5,-0.641334 6.834852,-1.368118 C 73.229404,63.529399 85.062905,64.389754 82.916667,66.38792 82.033218,67.210418 68.256589,67.7292 63.5,67.119087 Z M 121,48.116631 c 0,-1.276974 3.73419,-2.087307 9.69098,-2.102976 5.19444,-0.01366 7.68698,1.243595 4.72149,2.38156 C 132.95817,49.33702 121,49.105876 121,48.116631 Z m 64.25,-9.832885 c 1.5125,-0.229125 3.9875,-0.229125 5.5,0 1.5125,0.229124 0.275,0.41659 -2.75,0.41659 -3.025,0 -4.2625,-0.187466 -2.75,-0.41659 z"
         id="path3" />
      <path
         style="fill:#6a100b"
         d="m 175,133 c 0,-0.55 2.1375,-0.94676 4.75,-0.88169 4.23995,0.10562 4.42786,0.20029 1.75,0.88169 -4.42324,1.12552 -6.5,1.12552 -6.5,0 z m -42.0579,-11.24797 c -2.11265,-1.71072 -2.01368,-1.74947 4.19712,-1.6435 6.95594,0.11869 19.26702,1.456 16.86078,1.83152 -0.825,0.12876 -5.4137,0.53333 -10.19711,0.89906 -7.4421,0.569 -9.00934,0.41214 -10.86079,-1.08708 z M 120,112.54966 c 0,-1.30045 1.56793,-1.53351 9.75,-1.44921 10.36898,0.10683 9.0181,1.00845 -3.5,2.33603 -5.26305,0.55816 -6.25,0.41812 -6.25,-0.88682 z m -22,-6.48967 c 0.825,-0.48356 5.325,-1.135 10,-1.44764 l 8.5,-0.56845 -6.5,1.41639 c -7.50355,1.63507 -14.350208,1.97723 -12,0.5997 z M 80.537769,99.061111 c -0.859616,-1.390888 -0.0125,-1.642625 12.158203,-3.613066 13.838188,-2.240405 15.063748,-1.369898 1.946372,1.382492 -5.855904,1.228731 -11.27551,2.475201 -12.04357,2.769933 -0.76806,0.294733 -1.695512,0.05202 -2.061005,-0.539359 z M 127,82.158911 c 0,-2.213075 0.6545,-2.41673 13.51593,-4.205614 4.40877,-0.613211 9.58377,-0.958783 11.5,-0.767939 2.76939,0.275812 1.22767,0.887504 -7.51593,2.98201 -18.16224,4.350716 -17.5,4.275352 -17.5,1.991543 z m 41,-16.051922 c 0,-1.505801 2.54564,-1.979391 7.12686,-1.325879 4.21942,0.601902 4.26769,0.647706 1.37314,1.303046 -4.49838,1.018455 -8.5,1.029205 -8.5,0.02283 z m 55.25,-7.76927 C 222.5625,58.060307 222,57.37205 222,56.808259 c 0,-1.168158 4.95697,-0.197895 6.45,1.262504 1.00384,0.981904 -2.92794,1.183753 -5.2,0.266956 z"
         id="path2" />
    </g>
  </g>
</svg>
